<?xml version="1.0" standalone="no"?>
<!DOCTYPE svg PUBLIC "-//W3C//DTD SVG 1.1//EN" "http://www.w3.org/Graphics/SVG/1.1/DTD/svg11.dtd" >
<!--
2013-9-30: Created.
-->
<svg>
<metadata>
Created by iconfont
</metadata>
<defs>

<font id="iconfont" horiz-adv-x="1024" >
  <font-face
    font-family="iconfont"
    font-weight="500"
    font-stretch="normal"
    units-per-em="1024"
    ascent="896"
    descent="-128"
  />
    <missing-glyph />
    
    <glyph glyph-name="x" unicode="x" horiz-adv-x="1001"
d="M281 543q-27 -1 -53 -1h-83q-18 0 -36.5 -6t-32.5 -18.5t-23 -32t-9 -45.5v-76h912v41q0 16 -0.5 30t-0.5 18q0 13 -5 29t-17 29.5t-31.5 22.5t-49.5 9h-133v-97h-438v97zM955 310v-52q0 -23 0.5 -52t0.5 -58t-10.5 -47.5t-26 -30t-33 -16t-31.5 -4.5q-14 -1 -29.5 -0.5
t-29.5 0.5h-32l-45 128h-439l-44 -128h-29h-34q-20 0 -45 1q-25 0 -41 9.5t-25.5 23t-13.5 29.5t-4 30v167h911zM163 247q-12 0 -21 -8.5t-9 -21.5t9 -21.5t21 -8.5q13 0 22 8.5t9 21.5t-9 21.5t-22 8.5zM316 123q-8 -26 -14 -48q-5 -19 -10.5 -37t-7.5 -25t-3 -15t1 -14.5
t9.5 -10.5t21.5 -4h37h67h81h80h64h36q23 0 34 12t2 38q-5 13 -9.5 30.5t-9.5 34.5q-5 19 -11 39h-368zM336 498v228q0 11 2.5 23t10 21.5t20.5 15.5t34 6h188q31 0 51.5 -14.5t20.5 -52.5v-227h-327z" />
    

    
    <glyph glyph-name="iconfontjiantou5" unicode="&#58933;" d="M646.74492268 370.56808716c0.30966971 0.61933881 0.85159092 1.16126065 1.08384307 1.78059944 5.41921531 11.30293489 3.63861586 25.23806078-5.96113717 34.2958926L423.08615693 613.58119414c-11.92227432 11.30293489-30.73469368 10.76101367-42.03762857-1.16126066-11.30293489-11.92227432-10.76101367-30.73469368 1.16126064-42.03762857l196.3304358-185.72425733L382.98396235 196.22418294c-11.84485673-11.38035247-12.15452646-30.19277183-0.77417334-42.03762857 5.80630262-6.03855412 13.62545619-9.13524875 21.36719278-9.13524875 7.43206689 0 14.86413379 2.78702493 20.59301882 8.36107541l216.76862009 208.94946651c0.38708667 0.38708667 0.54192185 1.00642547 1.00642547 1.39351279 0.30966971 0.30966971 0.61933881 0.54192185 1.00642547 0.85159094C644.73207111 366.38754944000004 645.58366204 368.55523557000004 646.74492268 370.56808716L646.74492268 370.56808716zM646.74492268 370.56808716"  horiz-adv-x="1024" />

    
    <glyph glyph-name="jiantou-right" unicode="&#58908;" d="M851.44535255 407.05864077l-240.5348299 241.27351028c-5.44573088 5.46066742-12.70217915 8.45884065-20.42233945 8.45884066-7.77854863 0-15.09202737-3.04162503-20.59614658-8.54574423-10.47188046-10.48613805-11.50046569-26.89665557-2.46249418-38.41137887l195.6348773-196.30091172h-571.81124667c-15.96038416 0-28.95314713-13.04979343-28.95314714-29.09776009s12.99208403-29.08350247 28.95314714-29.08350247h571.79631013l-200.37044306-200.93531629c-6.02554064-11.99269295-4.15711385-25.83955508 4.83740587-34.86259002 5.38802147-5.38802147 12.6736639-8.34206398 20.52350062-8.34274292 8.63264781 0 16.87355061 3.47614289 23.18899614 9.79090948l16.04796665 16.03370905 44.04585345 44.1904664 8.31354874 8.16825685 171.77916785 172.40242939c5.69218397 5.72137813 8.5749384 13.55695725 8.15535708 22.0735073l-0.02919417 0.56487323 0.02919417 0.57913084c0.42026023 8.53080769-2.46249419 16.36706572-8.12548397 22.04431313v0zM851.44535255 407.05864077z"  horiz-adv-x="1028" />

    
    <glyph glyph-name="arrfill_l" unicode="&#58881;" d="M347.92138672 162.23173827999995v447.2147461c0 24.75 19.86152344 44.76621094 44.61064453 44.76621093 11.50751953 0 21.91289063-4.415625 29.79580078-11.50664062l295.09716797-221.16181641c19.546875-14.81748047 23.64697266-42.72099609 8.82773438-62.4234375-2.52333984-3.46904297-5.52041016-6.46435547-8.82861329-8.82861328l-298.24628906-223.69042969c-19.54775391-14.65664062-47.6015625-10.71650391-62.26523437 8.98681641-6.14882812 8.04199219-8.98681641 17.34082031-8.98681641 26.63964844v0z"  horiz-adv-x="1024" />

    
    <glyph glyph-name="duigou" unicode="&#58971;" d="M874.11953735 594.6079101600001l-430.97167969-415.74133302c-0.89648438-0.85940552-1.88690185-1.55731201-2.90945433-2.17034911l-52.17160035-53.76928711c-6.1559143-6.41629028-16.3526001-6.62722778-22.76806641-0.46472168L148.181427 347.33312988c-6.41546631 6.15509033-6.62805175 16.35342407-0.47213745 22.7680664l28.50787354 30.35522462c6.15509033 6.41464234 16.3526001 6.61981201 22.76724243 0.46472168l173.35766601-133.97003174 451.21673584 381.47964478c6.43112182 6.13696289 16.62780762 5.89718628 22.76641846-0.5421753l28.33483886-30.51260376c6.13449097-6.4385376 5.89636231-16.63110352-0.54052734-22.76889038z"  horiz-adv-x="1024" />

    
    <glyph glyph-name="user" unicode="&#59017;" d="M824.876 142.391c-17.131 40.502-41.652 76.873-72.882 108.104-31.23 31.23-67.602 55.752-108.104 72.883a337.977 337.977 0 0 1-50.078 16.704c27.87 11.169 53.456 27.967 75.326 49.837 42.495 42.495 65.898 98.995 65.898 159.092 0 60.097-23.403 116.596-65.898 159.091S570.144 774 510.047 774s-116.596-23.403-159.091-65.898-65.898-98.995-65.898-159.091c0-60.097 23.403-116.597 65.898-159.092 22.156-22.156 48.125-39.109 76.42-50.274a338.116 338.116 0 0 1-48.267-16.267c-40.501-17.131-76.873-41.652-108.103-72.883-31.23-31.23-55.751-67.602-72.882-108.104-17.739-41.939-26.733-86.482-26.733-132.391 0-8.284 6.716-15 15-15s15 6.716 15 15c0 82.834 32.257 160.709 90.829 219.281 58.572 58.572 136.447 90.829 219.28 90.829 82.834 0 160.709-32.257 219.28-90.829 58.572-58.572 90.829-136.447 90.829-219.281 0-8.284 6.716-15 15-15s15 6.716 15 15c0 45.908-8.994 90.451-26.733 132.391zM315.058 549.01c0 107.518 87.471 194.99 194.989 194.99s194.99-87.472 194.99-194.989c0-107.518-87.473-194.991-194.99-194.991s-194.989 87.472-194.989 194.99z"  horiz-adv-x="1024" />

    
    <glyph glyph-name="password" unicode="&#59018;" d="M790.063 390.717H285.569V520.354c0 58.818 22.906 114.116 64.498 155.708 41.592 41.591 96.891 64.497 155.709 64.497 58.819 0 114.118-22.906 155.711-64.497 41.592-41.592 64.497-96.89 64.497-155.708 0-8.284 6.716-15 15-15s15 6.716 15 15c0 66.832-26.026 129.663-73.284 176.921-47.259 47.258-110.091 73.284-176.924 73.284-66.832 0-129.665-26.026-176.923-73.284-47.258-47.258-73.284-110.089-73.284-176.921v-129.637h-20.125c-30.327 0-55-24.673-55-55v-283.275c0-30.327 24.673-55 55-55h554.619c30.327 0 55 24.673 55 55V335.717c0 30.327-24.672 55-55 55z m25-338.276c0-13.785-11.215-25-25-25H235.444c-13.785 0-25 11.215-25 25V335.717c0 13.785 11.215 25 25 25h554.619c13.785 0 25-11.215 25-25v-283.276zM514.009 287.779c-20.62 0-37.337-16.715-37.337-37.334 0-13.771 7.46-25.79 18.553-32.262v-62.597a18.249 18.249 0 0 1-0.3-3.21c0-10.062 8.145-51.504 18.206-51.504 9.567 0 17.424 37.469 18.172 49.801h0.06v66.715c11.878 6.249 19.981 18.702 19.981 33.057 0 20.619-16.716 37.334-37.335 37.334z"  horiz-adv-x="1024" />

    
    <glyph glyph-name="weixinzhifu1" unicode="&#58880;" d="M618.88020801 285c-4.5-1.50000029-7.49999971-2.99999971-11.99999971-2.99999971-10.50000029 0-19.50000029 6.00000029-24.00000029 14.99999942l-1.49999941 4.5-76.5 168.00000029c-1.50000029 1.50000029-1.50000029 4.5-1.5000003 6.00000029 0 7.49999971 6.00000029 13.5 13.5 13.5 2.99999971 0 6.00000029-1.50000029 9-3.00000058l89.99999999-64.49999942c6.00000029-4.5 15.00000029-7.49999971 22.50000001-7.50000058 4.5 0 10.50000029 1.50000029 15.0000003 3.00000058l424.49999941 189c-76.5 90-200.99999971 148.5-343.49999941 148.5-232.49999971 0-420.00000029-157.5-420.0000003-349.50000058 0-105.00000029 56.99999971-200.99999971 145.5000003-263.99999971 7.49999971-4.5 11.99999971-13.5 11.9999997-22.5 0-2.99999971 0-6.00000029-1.50000029-9-9-27-19.50000029-70.49999971-19.49999941-72-1.50000029-2.99999971-1.50000029-7.49999971-1.5000003-10.50000029 0-7.49999971 6.00000029-13.5 13.5-13.5 2.99999971 0 6.00000029 1.50000029 7.49999971 3.00000058l91.50000028 52.49999971c7.49999971 4.5 13.5 6.00000029 22.50000001 6.00000029 4.5 0 9 0 11.99999971-1.50000029 43.49999971-11.99999971 88.49999971-19.50000029 136.50000029-19.50000029 232.49999971 0 420.00000029 157.5 420.0000003 349.50000058 0 58.5-18 114.00000029-48.00000059 162L621.8802086 287.99999971l-3.00000059-2.99999971zM1941.88020801 454.49999971h235.50000029v-19.49999942h-235.50000029zM1941.88020801 386.99999971h235.50000029v-20.99999971h-235.50000029zM1947.8802083 181.5h223.49999971V309.00000029h-223.49999971v-127.50000029z m200.99999971 19.50000029h-180v86.99999942h180v-86.99999942zM1889.3802083 577.5c-20.99999971-73.50000029-51.00000029-139.5-90-196.49999971l11.99999971-21.00000058c13.5 20.99999971 27 43.49999971 42.00000029 69.00000029v-250.49999971h20.99999971V474c13.5 29.99999971 25.49999971 60.00000029 34.50000059 91.50000029l-19.5000003 11.99999971zM2060.38020829 521.99999971l16.49999972 10.50000029c-2.99999971 7.49999971-18 36-22.5 46.50000029l-19.49999942-12.00000058c7.49999971-13.5 13.5-27 19.49999942-40.5 1.50000029-1.50000029 1.50000029-4.5 1.50000029-4.5h-139.5v-20.99999971h283.5v20.99999971h-139.50000001zM1529.3802083 571.49999971h19.50000029v-106.49999971h40.5v74.99999971h20.99999971v-94.5h-145.5000003v94.5H1485.8802086v-74.99999971h43.4999997zM1472.3802086 402h127.4999994v-19.50000029h-127.4999994zM1617.88020801 286.50000029l-32.99999941-28.50000029V339h-108v-31.5c2.99999971-45-7.49999971-76.5-33.0000003-94.5l11.99999971-19.50000029c31.5 25.49999971 45 61.49999971 43.50000059 106.50000058v19.49999942h65.9999997v-47.99999971c-1.50000029-16.49999971-1.50000029-22.5-7.4999997-29.99999971l11.9999997-21.00000058c10.50000029 9 29.99999971 25.49999971 58.49999999 49.5l-10.50000028 16.50000058zM1434.8802083 574.50000029c-20.99999971-42.00000029-45-76.5-74.99999971-103.5l11.9999997-21.00000058c33.00000029 33.00000029 60.00000029 70.49999971 81 114.00000029l-17.99999999 10.50000029zM1431.8802086 466.50000029c-19.50000029-49.5-45-92.99999971-78.0000003-129.00000058l11.99999971-19.49999942c13.5 15.00000029 25.49999971 31.5 37.50000029 47.99999971v-186.00000029h19.5000003V399.00000029c10.50000029 18 19.50000029 36 27 56.99999971l-18 10.50000029zM1766.38020801 478.5v19.50000029h-94.5c7.49999971 24.00000029 18 52.49999971 21.00000059 77.99999942h-21.00000059c-13.5-64.50000029-34.49999971-119.99999971-61.49999971-164.99999971l11.99999971-22.5c1.50000029 4.5 6.00000029 10.50000029 9 18 4.5 7.49999971 7.49999971 13.5 10.50000028 18 6.00000029-58.5 18-105.00000029 34.49999972-139.5-16.49999971-27-40.5-55.50000029-72-83.99999971l12.00000058-21.00000058c34.49999971 31.5 56.99999971 60.00000029 68.99999942 82.50000029 15.00000029-25.49999971 38.99999971-56.99999971 66.00000058-83.99999971l11.9999997 20.99999971c-28.50000029 27-52.49999971 56.99999971-65.9999997 82.50000029 24.00000029 43.49999971 38.99999971 108 45.00000001 191.99999971h23.99999941z m-77.99999941-168.00000029c-15.00000029 36-25.49999971 85.5-31.50000001 147.00000058 1.50000029 6.00000029 4.5 13.5 9.00000001 19.49999942h58.49999999c-6.00000029-69.00000029-18-126-35.99999999-166.5M2901.8802083 283.49999971c-15.00000029 28.50000029-45 78.00000029-69.00000029 114.00000029l18 9c24.00000029-36 55.50000029-83.99999971 69.00000029-110.99999971l-18-12.00000058zM2633.3802086 183.00000029l5.9999994 19.49999942c-67.5 10.50000029-126 29.99999971-175.5 58.5 52.49999971 34.49999971 96.00000029 81 121.5 142.50000058l-13.5 9-4.49999999-1.50000029h-113.99999942V489.00000029H2625.880208v20.99999971h-172.49999941v73.50000029h-21.00000058v-73.50000029h-172.49999941V489.00000029h172.49999941v-79.50000058h-117.00000001v-20.99999971c25.49999971-52.49999971 63-96.00000029 109.50000029-128.99999971-52.49999971-28.50000029-112.5-47.99999971-175.5-60.00000029l6.00000031-19.50000029v-1.49999942c67.5 13.5 132.00000029 34.49999971 189 67.5 51.00000029-31.5 114.00000029-52.49999971 189-63-1.50000029-1.50000029-1.50000029 0 0 0m-294.0000003 207h214.49999971c-24.00000029-49.5-63-87.00000029-109.49999941-117-45 29.99999971-81 69.00000029-105.0000003 117M2787.880208 582c-25.49999971-70.49999971-67.5-137.99999971-112.49999999-182.99999971l9-22.5v-1.50000029c19.50000029 19.50000029 36 40.5 52.50000058 65.99999971v-259.49999971h20.99999971V472.49999971c19.50000029 31.5 36 65.99999971 49.5 102.00000058l-19.5000003 7.49999971zM3005.38020829 483V579.00000029h-20.99999969v-96.00000029h-184.5v-20.99999971h184.5v-249.00000029c0-10.50000029-2.99999971-13.5-13.5-13.5-7.49999971 0-16.49999971-2.99999971-39.00000059-2.99999971v-19.50000029c31.5 0 42.00000029 0 54 2.99999971 13.5 2.99999971 20.99999971 10.50000029 21.00000058 31.5V462.00000029h59.99999942v20.99999971h-61.49999972z"  horiz-adv-x="3363" />

    
    <glyph glyph-name="zhifubao" unicode="&#58882;" d="M437.97916665 383.71979166000006c-17.803125-1.771875-51.215625-9.61875001-69.48281251-25.73437501-54.84375001-47.5875-21.9796875-134.6203125 88.8046875-134.62031249 64.378125 0 128.75625001 41.090625 179.296875 106.7765625-71.71875001 35.015625-132.6796875 60.075-198.61874999 53.578125z m413.43749998-60.15937501c102.5578125-34.25625001 125.803125-36.0703125 125.80312501-36.07031249V655.74479166a113.90625001 113.90625001 0 0 1-113.90625 113.90625H378.91666663a113.90625001 113.90625001 0 0 1-113.90624999-113.90625v-482.6671875a113.90625001 113.90625001 0 0 1 113.90624999-113.90625001h484.27031251a113.90625001 113.90625001 0 0 1 113.90625001 113.90625001V177.76041665000002s-185.2453125 76.9921875-278.81718751 121.83750002c-62.7328125-76.95-143.690625-123.69375001-227.8125-123.69375001-142.0875 0-190.35 123.9890625-123.103125 205.621875 14.68125001 17.7609375 39.65625001 34.7625 78.384375 44.29687501 60.58125001 14.85 157.021875-9.28125001 247.3875-39.02343751a494.1421875 494.1421875 0 0 1 40.1203125 97.74843751h-278.4375V512.7291666599999h143.4375v50.625H404.69322913V591.19791667h173.89687501V663.21197916a11.9390625 11.9390625 0 0 0 12.31875 12.1078125h70.2V591.19791667h171.95625v-28.1390625H661.10885414v-50.625h140.4a571.978125 571.978125 0 0 0-59.44218749-149.72343752c42.609375-15.35625001 80.83125001-29.9109375 109.35-39.44531249zM2308.31979164 681.52135417h230.93437499v-45.73125001h82.47656252V689.95885417a1.18125001 1.18125001 0 0 0 0 0.33749998 21.9796875 21.9796875 0 0 1-21.34687501 22.23281251h-133.5234375v42.609375h-86.315625v-42.609375h-154.70156249v-76.7390625h82.47656249zM1749.58854164 751.21510416l-84.54375-200.0109375h64.8421875v-237.9796875h70.959375V628.91354166h-25.69218751l53.45156252 122.3015625H1749.58854164zM2605.27760414 411.64791665a13.4578125 13.4578125 0 0 1-12.65625 9.6609375h-68.76562501l19.9125-67.24687499H2462.97916663V484.29479166h158.54062501V515.26041667H2462.97916663V576.55885417h158.54062501v31.00781249h-395.71875v-31.00781251h158.54062499V515.26041667h-158.49843748v-31.00781251h158.54062499v-130.190625h-158.54062499v-31.0078125h405.37968749l-0.3375 1.05468749h0.3375zM1931.03697914 587.27447916a16.453125 16.453125 0 0 1-14.596875 9.32343751h-61.425l47.84062499-150.6515625h72.64687501zM2086.49791664 747.58697916h-73.74375001V670.51041667h-181.70156249v-31.00781251h181.70156251v-276.9609375a12.65625001 12.65625001 0 0 0-11.89687501-11.6015625h-37.4625v-32.10468749h95.5546875a29.109375 29.109375 0 0 1 27.5484375 28.72968749V639.54479166h29.953125V670.51041667h-29.953125zM1577.88541664 342.29166666000003a873.61875001 873.61875001 0 0 0-162.50625001 77.45625001c60.7078125 44.9296875 113.90625001 105.9328125 135 187.5234375h-141.49687499v50.62499998h164.19375v31.68281251h-164.19375V753.87291667h-73.1953125a14.765625 14.765625 0 0 1-14.5125-15.01875001v-49.275H1158.11979164v-31.5984375h163.0546875v-50.625h-137.615625v-31.5984375h274.21875s-15.1875-59.315625-90.365625-123.06093749C1299.91197914 503.57447916 1277.51041664 544.20104166 1277.51041664 544.20104166h-73.659375c29.7421875-51.553125 72.0140625-92.8125 117.534375-125.634375-41.8078125-27.16875001-96.0609375-53.3671875-166.1765625-74.334375v-37.96875a741.909375 741.909375 0 0 1 212.7515625 82.0125 761.6109375 761.6109375 0 0 1 209.925-81.84375zM1237.05260414 248.42447916000003l-67.5-183.5578125h34.34062501l12.65624999 36.95625001h67.5l12.234375-36.95625001h34.340625l-67.5 183.5578125z m-12.23437499-123.44062499l26.325 75.9375 25.3125-75.9375zM1514.39322913 248.42447916000003h-32.99062499v-183.5578125h111.121875v24.975h-78.13125001v158.5828125zM1755.83229164 248.42447916000003h33.0328125v-183.5578125h-33.0328125zM2036.21041664 248.42447916000003h-71.3390625v-183.5578125h32.990625V135.57291665000002h38.3484375c35.60625001 0 60.4546875 23.2453125 60.4546875 56.48906251s-24.8484375 56.3625-60.4546875 56.3625z m-1.85625001-87.7921875h-36.49218749v62.8171875h36.49218749c18.309375 0 29.278125-16.03125001 29.27812501-31.51406249s-10.2515625-31.303125-29.2359375-31.30312501zM2285.49635414 248.42447916000003l-67.5-183.5578125h34.340625l12.65624999 36.95625001h67.5l12.23437501-36.95625001h34.34062499l-67.5 183.5578125zM2273.13541664 124.98385416999997l26.325 75.93749998 25.3125-75.9375zM2563.25885414 248.42447916000003l-36.02812501-78.21562499-36.5765625 78.21562499h-35.6484375l55.5609375-108.16875v-75.3890625h32.77968751v75.3890625l0.2109375 0.421875 55.3921875 107.746875h-35.690625z"  horiz-adv-x="2899" />

    
    <glyph glyph-name="icon-test" unicode="&#59066;" d="M509.01333333 385.70666667c-95.68 0-173.54666667 77.86666667-173.54666666 173.54666666S413.33333333 732.8 509.01333333 732.8c95.68 0 173.54666667-77.86666667 173.54666667-173.54666667S604.8 385.70666667 509.01333333 385.70666667z m0 304.53333333c-72.21333333 0-130.88-58.77333333-130.88-130.88s58.77333333-130.88 130.88-130.88c72.21333333 0 130.88 58.77333333 130.88 130.88s-58.66666667 130.88-130.88 130.88zM159.68 70.29333333c-11.73333333 0-21.33333333 9.6-21.33333333 21.33333334 0 67.09333333 20.90666667 131.09333333 60.58666666 184.96 38.82666667 52.8 92.16 91.52 154.13333334 112 11.2 3.73333333 23.25333333-2.34666667 26.98666666-13.54666667s-2.34666667-23.25333333-13.54666666-26.98666667c-53.54666667-17.6-99.52-51.09333333-133.12-96.74666666-34.24-46.50666667-52.26666667-101.76-52.26666667-159.68-0.10666667-11.84-9.70666667-21.33333333-21.44-21.33333334zM688.21333333 150.50666666999996c-39.46666667 0-71.68 32.10666667-71.68 71.68s32.10666667 71.68 71.68 71.68 71.68-32.10666667 71.68-71.68-32.21333333-71.68-71.68-71.68z m0 100.58666666c-16 0-29.01333333-13.01333333-29.01333333-29.01333333s13.01333333-29.01333333 29.01333333-29.01333333 29.01333333 13.01333333 29.01333334 29.01333333c0 16.10666667-13.01333333 29.01333333-29.01333334 29.01333333zM639.36 49.06666667000002c-4.37333333 0-8.74666667 0.74666667-13.01333333 2.24-18.88 6.82666667-36.37333333 16.64-52.05333334 29.22666666-13.44 10.77333333-18.13333333 29.54666667-11.30666666 45.65333334 1.17333333 2.77333333 1.81333333 5.76 1.81333333 8.74666666 0 13.12-10.66666667 23.78666667-23.78666667 23.78666667-0.53333333 0-1.6-0.10666667-2.13333333-0.21333333-12.26666667-1.92-24 6.18666667-26.56 18.34666666-0.64 2.88-6.08 28.8-6.08 45.65333334 0 12.05333333 1.17333333 24.10666667 3.52 35.94666666 3.52 17.6 18.56 30.4 36.58666667 31.04 1.70666667 0.10666667 6.93333333 0.21333333 16.64 10.13333334 4.05333333 4.16 6.50666667 8.96 6.61333333 13.12 0.10666667 3.09333333-0.53333333 6.18666667-1.70666667 9.17333333-7.04 17.06666667-2.02666667 36.37333333 12.37333334 47.04 13.54666667 10.02666667 28.48 18.13333333 44.26666666 24 18.13333333 6.82666667 38.61333333-0.85333333 47.57333334-17.81333333 4.16-7.78666667 12.16-12.58666667 20.90666666-12.58666667 8.10666667 0 15.57333333 4.16 19.94666667 10.98666667 10.77333333 16.85333333 31.14666667 23.46666667 48.64 15.68 13.01333333-5.76 25.49333333-13.12 36.90666667-21.97333334 13.54666667-10.34666667 18.34666667-29.01333333 11.62666666-45.44-1.49333333-3.62666667-1.92-7.36-1.49333333-11.30666666 0.74666667-5.97333333 4.8-12.05333333 10.88-16.32 5.44-3.84 9.17333333-4.48 11.52-4.58666667 17.49333333-1.17333333 32.10666667-13.86666667 35.62666667-30.93333333 2.34666667-11.84 3.62666667-24 3.62666666-36.05333334 0-10.66666667-0.96-21.54666667-2.98666666-32.21333333-3.2-17.49333333-18.02666667-30.50666667-35.94666667-31.57333333-1.70666667-0.10666667-6.82666667-0.42666667-15.89333333-9.17333334-4.37333333-4.16-6.82666667-9.28-7.04-13.86666666-0.10666667-3.41333333 0.53333333-6.82666667 2.02666666-9.92 7.57333333-16.85333333 2.98666667-36.26666667-11.2-47.25333334-12.16-9.49333333-25.49333333-17.28-39.46666666-23.36-16.96-7.36-36.58666667-1.38666667-47.68 14.4-4.48 6.4-11.52 10.02666667-19.2 10.02666667-8.21333333 0-15.68-4.16-20.05333334-11.2-7.46666667-12.48-20.16-19.41333333-33.49333333-19.41333333z m-36.05333333 62.93333333c10.56-8.10666667 22.18666667-14.61333333 34.56-19.41333333 12.37333333 18.56 32.74666667 29.54666667 55.04 29.54666666 20.8 0 40.42666667-9.92 52.90666666-26.56 8.64 3.94666667 16.96 8.96 24.74666667 14.72-3.41333333 8.42666667-5.12 17.38666667-4.8 26.56 0.42666667 15.78666667 7.46666667 31.14666667 19.84 43.2 12.8 12.48 26.02666667 19.41333333 40.10666667 21.01333334 1.17333333 7.14666667 1.70666667 14.4 1.70666666 21.54666666 0 8.21333333-0.74666667 16.53333333-2.24 24.64-10.45333333 1.17333333-20.69333333 5.22666667-30.29333333 11.94666667-16.21333333 11.30666667-26.66666667 28.16-28.8 46.29333333-1.17333333 10.24-0.10666667 20.37333333 3.41333333 29.97333334-7.04 5.12-14.4 9.49333333-22.08 13.22666666-12.37333333-18.13333333-32.64-28.8-54.61333333-28.8-23.36 0-44.69333333 12.16-56.64 31.89333334-10.02666667-4.05333333-19.52-9.17333333-28.26666667-15.46666667 2.98666667-7.89333333 4.37333333-16.10666667 4.16-24.53333333-0.32-15.25333333-7.04-30.18666667-18.88-42.13333334-13.54666667-13.76-27.41333333-21.12-42.34666666-22.50666666-1.38666667-8.10666667-2.13333333-16.32-2.13333334-24.53333334 0-5.76 1.17333333-14.29333333 2.34666667-21.97333333 31.78666667-4.90666667 56.21333333-32.53333333 56.21333333-65.6 0.21333333-8-1.28-15.68-3.94666666-23.04z"  horiz-adv-x="1024" />

    
    <glyph glyph-name="icon-test1" unicode="&#59067;" d="M406.05013333 271.01108148000003c32.64663703 16.26263703 65.41463703 32.28254815 97.81854815 48.78791111 5.94678518 3.03407408 10.67994075 2.91271111 16.50536297-0.12136296 33.37481482-16.86945185 66.99235555-33.37481482 100.48853333-49.88017778 2.3058963-1.09226667 4.61179259-1.94180741 8.98085925-3.64088888-39.68568889 78.76456297-78.27911111 155.22322963-117.72207406 233.74506666-39.68568889-78.6432-78.40047408-155.58731852-118.08616297-234.35188148 5.33997037 2.42725925 8.73813333 3.76225185 12.01493333 5.46133333zM810.31016297 563.98127408c-13.34992592 0-24.27259259-10.92266667-24.2725926-24.2725926v-332.41315556c0-33.49617778-27.1853037-60.68148148-60.68148148-60.68148147H213.68983703c-9.8304 0-18.6898963-5.94678518-22.45214814-14.92764445s-1.69908148-19.53943703 5.21860741-26.45712592l92.11448888-92.1144889c4.73315555-4.73315555 10.92266667-7.16041482 17.11217779-7.16041481s12.37902222 2.42725925 17.11217778 7.16041481c9.46631111 9.46631111 9.46631111 24.87940741 0 34.34571852l-50.72971853 50.72971852h452.92657778c60.19602963 0 109.22666667 49.03063703 109.22666667 109.22666667V539.70868148c0.36408889 13.47128889-10.55857778 24.27259259-23.9085037 24.2725926zM213.68983703 218.94637036999995c13.34992592 0 24.27259259 10.92266667 24.2725926 24.2725926V572.59804445c0 33.49617778 27.1853037 60.68148148 60.68148148 60.68148147h511.54488889c9.8304 0 18.6898963 5.94678518 22.45214815 14.92764445 3.76225185 9.10222222 1.69908148 19.53943703-5.2186074 26.45712593l-80.09955557 80.09955555c-9.46631111 9.46631111-24.87940741 9.46631111-34.34571851 0s-9.46631111-24.87940741 0-34.34571852l38.71478518-38.71478518H298.64391111c-60.19602963 0-109.22666667-49.03063703-109.22666666-109.22666667V243.21896297c0-13.34992592 10.92266667-24.27259259 24.27259258-24.2725926z"  horiz-adv-x="1024" />

    
    <glyph glyph-name="icon-test2" unicode="&#59068;" d="M861.44 738.77333333H162.56c-11.73333333 0-21.33333333-9.6-21.33333333-21.33333333s9.6-21.33333333 21.33333333-21.33333333H193.06666667v-401.92c0-46.4 37.76-84.16 84.16-84.16h147.84l-84.26666667-149.01333334c-5.76-10.24-2.13333333-23.25333333 8.10666667-29.12 3.30666667-1.92 6.93333333-2.77333333 10.45333333-2.77333333 7.46666667 0 14.72 3.94666667 18.56 10.88l94.08 166.4c0.64 1.17333333 1.17333333 2.34666667 1.6 3.62666667h76.58666667c0.42666667-1.28 0.96-2.45333333 1.6-3.62666667l94.08-166.4c3.94666667-6.93333333 11.2-10.88 18.56-10.88 3.52 0 7.14666667 0.85333333 10.45333333 2.77333333 10.24 5.76 13.86666667 18.77333333 8.10666667 29.12l-84.26666667 149.01333334h147.84c46.4 0 84.16 37.76 84.16 84.16V696.10666667h30.4c11.73333333 0 21.33333333 9.6 21.33333333 21.33333333s-9.28 21.33333333-21.01333333 21.33333333zM788.26666667 294.29333333c0-22.93333333-18.66666667-41.49333333-41.49333334-41.49333333H277.22666667c-22.93333333 0-41.49333333 18.66666667-41.49333334 41.49333333V696.10666667h552.53333334v-401.81333334zM374.4 330.13333333c11.73333333 0 21.33333333 9.6 21.33333333 21.33333334v81.06666666c0 11.73333333-9.6 21.33333333-21.33333333 21.33333334s-21.33333333-9.6-21.33333333-21.33333334v-81.06666666c0-11.84 9.49333333-21.33333333 21.33333333-21.33333334zM512.32 330.13333333c11.73333333 0 21.33333333 9.6 21.33333333 21.33333334V608.96c0 11.73333333-9.6 21.33333333-21.33333333 21.33333333s-21.33333333-9.6-21.33333333-21.33333333v-257.49333333c0-11.84 9.6-21.33333333 21.33333333-21.33333334zM649.92 320.42666667000003c11.73333333 0 21.33333333 9.6 21.33333333 21.33333333V543.89333333c0 11.73333333-9.6 21.33333333-21.33333333 21.33333334s-21.33333333-9.6-21.33333333-21.33333334v-202.13333333c0-11.84 9.49333333-21.33333333 21.33333333-21.33333333z"  horiz-adv-x="1024" />

    
    <glyph glyph-name="icon-test3" unicode="&#59069;" d="M852.08177778 603.70488889c-10.80888889 10.80888889-25.25866667 16.83911111-40.61866667 16.83911111-94.77688889-0.11377778-255.88622222-0.22755555-270.90488889-0.22755555h-1.59288889c-17.18044445 0-57.68533333-0.11377778-72.36266666 22.07288888-27.98933333 42.09777778-82.37511111 45.85244445-84.76444445 45.96622222H236.65777778c-44.94222222 0-81.46488889-36.52266667-81.46488889-81.46488888v-445.78133334c0-44.94222222 36.52266667-81.46488889 81.46488889-81.46488888h550.68444444c44.94222222 0 81.46488889 36.52266667 81.46488889 81.46488888V563.0862222200001c0.11377778 15.36-5.91644445 29.696-16.72533333 40.61866667zM236.65777778 642.84444445h142.79111111c4.20977778-0.45511111 34.816-4.20977778 49.152-25.71377778 28.33066667-42.43911111 85.78844445-42.43911111 110.36444444-42.32533334h1.59288889c14.90488889 0 176.128 0.11377778 270.90488889 0.22755556 3.18577778 0 6.144-1.25155555 8.41955556-3.52711111s3.52711111-5.23377778 3.52711111-8.41955556v-62.464H200.59022222v106.26844445c0 19.91111111 16.15644445 35.95377778 36.06755556 35.95377778z m550.68444444-517.6888889H236.65777778c-19.79733333 0-35.95377778 16.15644445-35.95377778 35.95377778V455.11111111h622.70577778v-294.00177778c0-19.91111111-16.15644445-35.95377778-36.06755556-35.95377778z"  horiz-adv-x="1024" />

    
    <glyph glyph-name="icon-test4" unicode="&#59070;" d="M848.55466667 594.83022222L526.336 780.8568888899999c-8.76088889 5.00622222-19.91111111 5.00622222-28.672 0L175.44533333 594.83022222c-8.76088889-5.00622222-14.336-14.79111111-14.336-24.80355555v-372.05333334c0-10.01244445 5.57511111-19.79733333 14.336-24.80355555l322.21866667-186.02666667c4.32355555-2.50311111 9.32977778-3.75466667 14.336-3.75466666s10.01244445 1.25155555 14.336 3.75466666l322.21866667 186.02666667c8.76088889 5.00622222 14.336 14.79111111 14.336 24.80355555v372.05333334c0 10.01244445-5.68888889 19.79733333-14.336 24.80355555z m-31.17511112-387.072L512 31.40266667000003l-305.37955555 176.35555555V560.24177778l305.37955555 176.35555555L817.37955555 560.35555555v-352.59733333zM336.66844445 512.7964444500001c-10.92266667 6.25777778-24.80355555 2.50311111-31.06133334-8.41955556-6.25777778-10.92266667-2.50311111-24.80355555 8.41955556-31.06133334l176.58311111-101.60355555 0.34133333-203.776c0-12.51555555 10.24-22.75555555 22.75555556-22.75555555s22.75555555 10.24 22.75555555 22.75555555l-0.34133333 203.776L712.36266667 473.88444445c10.92266667 6.25777778 14.56355555 20.25244445 8.30577778 31.06133333-6.25777778 10.92266667-20.25244445 14.56355555-31.06133334 8.30577777l-176.24177778-102.17244444-176.69688888 101.71733334z"  horiz-adv-x="1024" />

    
    <glyph glyph-name="icon-test5" unicode="&#59071;" d="M814.61333333 692.58666667H209.38666667c-16.32 0-29.54666667-13.22666667-29.54666667-29.54666667v-558.18666667c0-16.32 13.22666667-29.54666667 29.54666667-29.54666666h605.33333333c16.32 0 29.54666667 13.22666667 29.54666667 29.54666666V663.04c-0.10666667 16.32-13.33333333 29.54666667-29.65333334 29.54666667z m-13.12-42.66666667v-75.2H222.50666667v75.2h578.98666666zM222.50666667 118.08000000000004V532.05333333h579.09333333v-414.08H222.50666667zM411.09333333 419.73333333c-8.32 8.32-21.86666667 8.32-30.18666666 0l-78.08-78.08c-4.16-4.16-6.29333333-9.6-6.29333334-15.04 0-4.8 1.6-9.6 4.8-13.44 0.42666667-0.53333333 0.96-1.06666667 1.49333334-1.6l78.08-78.08c4.16-4.16 9.6-6.29333333 15.04-6.29333333s10.88 2.13333333 15.04 6.29333333c8.32 8.32 8.32 21.86666667 0 30.18666667l-63.04 63.04 63.04 63.04c8.42666667 8.10666667 8.42666667 21.65333333 0.10666666 29.97333333zM716.58666667 327.03999999999996c-0.85333333 3.73333333-2.77333333 7.36-5.65333334 10.24l-78.08 78.08c-8.32 8.32-21.86666667 8.32-30.18666666 0s-8.32-21.86666667 0-30.18666667l63.04-63.04-63.04-62.93333333c-8.32-8.32-8.32-21.86666667 0-30.18666667 4.16-4.16 9.6-6.29333333 15.04-6.29333333s10.88 2.13333333 15.04 6.29333333l78.08 78.08c1.28 1.28 2.45333333 2.77333333 3.30666666 4.37333334 2.88 4.8 3.62666667 10.34666667 2.45333334 15.57333333zM539.73333333 484.37333333c-11.30666667 3.2-23.14666667-3.41333333-26.24-14.82666666l-74.45333333-265.92c-3.2-11.30666667 3.41333333-23.14666667 14.82666667-26.24 1.92-0.53333333 3.84-0.74666667 5.76-0.74666667 9.28 0 17.92 6.18666667 20.48 15.57333333l74.45333333 265.92c3.09333333 11.30666667-3.52 23.04-14.82666667 26.24z"  horiz-adv-x="1024" />

    
    <glyph glyph-name="icon-test6" unicode="&#59072;" d="M774.144 646.144C704.17066667 716.23111111 610.98666667 754.8017777800001 512 754.8017777800001S319.82933333 716.23111111 249.856 646.144C179.76888889 576.17066667 141.19822222 482.98666667 141.19822222 384s38.57066667-192.17066667 108.544-262.144C319.82933333 51.76888888999997 413.01333333 13.198222220000048 512 13.198222220000048s192.17066667 38.57066667 262.144 108.544S882.80177778 285.01333333 882.80177778 384 844.23111111 576.17066667 774.144 646.144z m-32.19911111-492.08888889c-61.44-61.44-143.13244445-95.232-229.94488889-95.232s-168.61866667 33.792-229.94488889 95.232c-61.44 61.44-95.232 143.13244445-95.232 229.94488889s33.792 168.61866667 95.232 229.94488889c61.44 61.44 143.13244445 95.232 229.94488889 95.232s168.61866667-33.792 229.94488889-95.232c61.44-61.44 95.232-143.13244445 95.232-229.94488889s-33.792-168.61866667-95.232-229.94488889zM686.76266667 558.76266667c-46.64888889 46.64888889-108.77155555 72.36266667-174.76266667 72.36266666s-128.11377778-25.71377778-174.76266667-72.36266666S264.87466667 449.99111111 264.87466667 384c0-12.51555555 10.24-22.75555555 22.75555555-22.75555555s22.75555555 10.24 22.75555556 22.75555555c0 111.27466667 90.45333333 201.728 201.728 201.728 111.27466667 0 201.728-90.45333333 201.728-201.728 0-12.51555555 10.24-22.75555555 22.75555555-22.75555555s22.75555555 10.24 22.75555556 22.75555555c-0.11377778 65.99111111-25.82755555 128.11377778-72.59022222 174.76266667zM593.35111111 481.73511111c-11.37777778 5.34755555-24.91733333 0.34133333-30.26488889-11.03644444L500.62222222 337.00977778000004c-6.71288889 1.59288889-13.65333333 2.38933333-20.82133333 2.38933333-50.40355555 0-91.36355555-40.96-91.36355556-91.36355556s40.96-91.36355555 91.36355556-91.36355555 91.36355555 40.96 91.36355556 91.36355555c0 26.85155555-11.60533333 51.08622222-30.15111112 67.81155556l63.26044445 135.62311111c5.46133333 11.37777778 0.45511111 24.91733333-10.92266667 30.26488889z m-113.55022222-279.552c-25.25866667 0-45.85244445 20.59377778-45.85244444 45.85244444s20.59377778 45.85244445 45.85244444 45.85244445c25.25866667 0 45.85244445-20.59377778 45.85244444-45.85244445s-20.48-45.85244445-45.85244444-45.85244444z"  horiz-adv-x="1024" />

    
    <glyph glyph-name="icon-test8" unicode="&#59074;" d="M512 112.3c19.7 0 35.9 16 35.9 35.9H476c0.1-19.9 16.3-35.9 36-35.9zM758.7 197.3l-63 81.7V435.8c0 51.5-21.2 101.3-58.2 136.8-25.6 24.6-56.8 40.8-90.4 47.6v0.5c0 19.4-15.7 35.1-35.1 35.1s-35.1-15.7-35.1-35.1c-36.2-6.8-69.6-24.2-96-50.6-32.8-32.6-52-76-54.2-122.1-0.1-2.9-0.2-5.9-0.2-8.8v-160.4l-61.3-81.7c-4.7-6.3-5.5-14.5-2-21.5s10.5-11.3 18.3-11.3h460.8c7.9 0 14.9 4.4 18.4 11.4 3.6 7 2.8 15.3-2 21.6z m-438.1 6.9l41.8 55.7c2.6 3.5 4.1 7.9 4.1 12.3v167c0 2.3 0.1 4.6 0.2 6.9 1.7 36.1 16.8 70 42.5 95.6 25.7 25.6 59.7 40.5 95.9 42 39.1 1.6 76.3-12.6 104.8-39.9 29.2-28 45.9-67.3 45.9-107.9v-163.5c0-4.5 1.5-9 4.3-12.5l42.8-55.5H320.6z"  horiz-adv-x="1024" />

    
    <glyph glyph-name="icon-test9" unicode="&#59075;" d="M765.38311111 665.03111111l-215.38133333 63.82933334c-21.61777778 6.37155555-54.38577778 6.37155555-76.00355556 0L258.61688889 665.03111111c-26.85155555-7.96444445-47.78666667-36.06755555-47.78666667-64.05688889v-283.98933333c0-23.66577778 11.71911111-54.84088889 27.30666667-72.59022222 2.50311111-2.84444445 60.87111111-69.40444445 95.57333333-98.98666667 36.40888889-31.06133333 134.144-96.93866667 138.35377778-99.78311111 11.37777778-7.62311111 25.48622222-11.37777778 39.59466667-11.37777778 14.44977778 0 28.89955555 3.98222222 40.39111111 11.83288889 4.096 2.84444445 100.69333333 69.51822222 140.06044444 103.53777778 31.17511111 26.96533333 90.56711111 92.16 93.184 95.00444444 16.04266667 17.52177778 28.10311111 48.81066667 28.10311111 72.47644445V600.97422222c-0.11377778 27.98933333-21.16266667 56.09244445-48.01422222 64.05688889z m2.38933334-347.93244444c0-12.40177778-7.85066667-32.768-16.15644445-41.87022222-0.56888889-0.68266667-60.07466667-65.99111111-89.20177778-91.136-37.43288889-32.42666667-135.05422222-99.78311111-136.07822222-100.46577778-7.28177778-5.00622222-21.504-5.00622222-28.78577778-0.11377778-1.024 0.68266667-99.78311111 67.24266667-134.144 96.59733333-32.19911111 27.53422222-90.33955555 93.75288889-90.90844444 94.43555556-8.192 9.44355555-16.04266667 30.15111111-16.04266667 42.66666667V600.97422222c0 8.07822222 7.50933333 18.09066667 15.24622222 20.36622223L486.96888889 685.28355555c6.59911111 1.93422222 15.81511111 2.95822222 25.03111111 2.95822223s18.54577778-1.024 25.03111111-2.95822223l215.38133334-63.82933333c7.73688889-2.27555555 15.24622222-12.40177778 15.24622222-20.36622222v-283.98933333zM512 597.1057777799999c-73.50044445 0-133.34755555-59.84711111-133.34755555-133.34755556 0-65.76355555 47.90044445-120.60444445 110.592-131.41333333V215.60888889c0-12.51555555 10.24-22.75555555 22.75555555-22.75555556s22.75555555 10.24 22.75555555 22.75555556v48.128h39.25333334c12.51555555 0 22.75555555 10.24 22.75555556 22.75555556s-10.24 22.75555555-22.75555556 22.75555555H534.75555555v22.98311111c62.80533333 10.80888889 110.592 65.64977778 110.592 131.41333334 0 73.61422222-59.84711111 133.46133333-133.34755555 133.46133333z m0-221.29777778c-48.46933333 0-87.83644445 39.36711111-87.83644445 87.83644445s39.36711111 87.83644445 87.83644445 87.83644444 87.83644445-39.36711111 87.83644445-87.83644444-39.36711111-87.83644445-87.83644445-87.83644445z"  horiz-adv-x="1024" />

    
    <glyph glyph-name="icon-test10" unicode="&#59076;" d="M512 505.96977778c-67.23508148 0-121.96977778-54.7346963-121.96977778-121.96977778S444.76491852 262.03022222000004 512 262.03022222000004 633.96977778 316.76491852000004 633.96977778 384 579.23508148 505.96977778 512 505.96977778z m0-195.39437037c-40.53522963 0-73.42459259 33.01072592-73.42459259 73.42459259 0 40.53522963 33.01072592 73.42459259 73.42459259 73.42459259 40.53522963 0 73.42459259-33.01072592 73.42459259-73.42459259 0-40.53522963-32.88936297-73.42459259-73.42459259-73.42459259zM841.86453333 451.11371852c-5.21860741 25.60758518-27.1853037 44.78293333-53.3997037 46.48201481-10.31585185 0.72817778-20.51034075 4.61179259-31.19028148 12.01493334-16.01991111 11.16539259-26.33576297 27.1853037-28.27757037 43.81202963-1.21362963 10.43721482 0.12136297 20.75306667 4.12634074 30.34074073 10.19448889 25.12213333 3.2768 52.4288-17.23354074 68.20598519-21.23851852 16.26263703-44.17611852 29.85528889-68.20598519 40.53522963-26.09303703 11.52948148-56.91922963 1.45635555-73.18186667-24.02986667-11.65084445-18.32580741-31.55437037-29.24847408-53.15697777-29.24847407-23.42305185 0-44.78293333 12.86447408-55.82696297 33.61754074-13.47128889 25.36485925-44.05475555 36.77297778-71.24005926 26.5784889-29.12711111-10.92266667-56.6765037-25.85031111-81.79863703-44.41884445-21.60260741-15.89854815-29.12711111-45.14702222-18.44717037-70.99733333 3.2768-7.88859259 4.85451852-16.14127408 4.61179259-24.63668149-0.24272592-12.74311111-6.5536-25.97167408-17.71899259-37.25842963-21.23851852-21.48124445-35.31662222-24.39395555-44.05475555-24.75804444-26.94257778-0.9709037-49.51608889-20.14625185-54.7346963-46.48201482-4.36906667-21.72397037-6.5536-44.17611852-6.5536-66.38554074 0-31.31164445 11.28675555-84.46862222 11.77220741-86.65315555 3.03407408-13.83537778 16.26263703-23.05896297 30.34074074-20.87442963 1.82044445 0.24272592 6.18951111 0.84954075 8.37404443 0.84954074 34.95253333 0 63.35146667-28.39893333 63.35146667-63.35146666 0-8.13131852-1.57771852-16.01991111-4.73315555-23.54441483-10.19448889-24.27259259-3.15543703-52.4288 16.99081481-68.57007407 28.88438518-23.18032592 61.2882963-41.38477037 96.24082964-53.88515555 6.43223703-2.3058963 12.86447408-3.39816297 19.41807407-3.39816297 19.90352592 0 39.20023703 10.55857778 50.60835556 29.00574815 11.65084445 18.81125925 31.67573333 29.97665185 53.52106666 29.97665185 20.38897778 0 39.56432592-10.07312592 51.33653334-26.82121481 16.74808889-23.9085037 46.23928889-32.88936297 71.7255111-21.9666963 25.85031111 11.16539259 50.36562963 25.60758518 72.93914075 43.08385186 21.23851852 16.50536297 28.15620741 45.75383703 16.62672592 71.11869629-3.88361482 8.49540741-5.70405925 17.59762963-5.33997037 26.94257778 0.36408889 13.34992592 7.28177778 27.42802963 18.81125926 38.71478518 19.90352592 19.41807408 33.37481482 22.20942222 41.87022222 22.81623704 26.94257778 1.57771852 49.03063703 20.99579259 53.88515556 47.33155555 3.64088889 19.78216297 5.46133333 39.80705185 5.46133333 59.58921483-0.24272592 21.9666963-2.42725925 44.41884445-6.91768889 66.26417777z m-46.48201481-117.47934815c-0.72817778-4.12634075-4.49042963-7.40314075-8.98085927-7.64586667-25.36485925-1.45635555-49.27336297-13.47128889-72.93914073-36.40888888-20.87442963-20.26761482-32.64663703-45.8752-33.49617777-72.0896-0.48545185-16.74808889 2.79134815-33.01072592 9.58767407-48.30245927 1.82044445-4.00497778 1.94180741-9.70903703-2.18453334-12.7431111-19.29671111-14.92764445-40.2925037-27.42802963-62.38056296-36.89434075-4.61179259-1.94180741-9.95176297 1.21362963-12.86447407 5.33997038-20.87442963 29.73392592-54.97742222 47.45291852-91.02222223 47.45291851-38.83614815 0-74.27413333-19.78216297-94.78447407-52.91425184-2.54862222-4.00497778-7.5245037-7.28177778-12.25765926-5.46133334-29.85528889 10.8013037-57.52604445 26.33576297-82.28408889 46.11792592-3.2768 2.66998518-4.36906667 7.5245037-2.54862222 11.89357037 5.70405925 13.47128889 8.49540741 27.79211852 8.4954074 42.35567408 0 59.9533037-47.33155555 108.98394075-106.67804443 111.77528889-3.2768 18.20444445-7.16041482 43.08385185-7.16041483 58.37558518 0 19.05398518 1.94180741 38.22933333 5.70405926 56.79786667 0.84954075 4.2477037 4.61179259 7.40314075 8.98085927 7.64586666 26.69985185 0.9709037 51.70062222 13.83537778 76.82275555 39.07887407 19.90352592 20.14625185 31.19028148 45.14702222 31.67573333 70.26915557 0.36408889 15.29173333-2.42725925 30.21937778-8.37404444 44.29748148-1.82044445 4.2477037-1.82044445 10.19448889 2.42725926 13.34992592 21.48124445 15.89854815 45.02565925 28.64165925 69.90506667 37.98660741 4.2477037 1.57771852 9.34494815-0.12136297 11.40811851-3.88361481 19.41807408-36.65161482 57.28331852-59.46785185 98.66808889-59.46785185 38.3506963 0 73.54595555 19.29671111 94.17765926 51.82198518 2.66998518 4.2477037 8.00995555 7.64586667 12.50038519 5.70405926 20.6317037-9.10222222 40.2925037-20.75306667 58.37558518-34.70980741 3.39816297-2.54862222 3.2768-7.64586667 1.82044445-11.40811852-7.03905185-17.3549037-9.46631111-35.68071111-7.28177778-54.3706074 3.51952592-30.34074075 21.35988148-58.73967408 48.66654815-77.91502223 17.84035555-12.50038518 36.65161482-19.41807408 55.82696296-20.75306667 4.49042963-0.24272592 8.13131852-3.39816297 8.98085926-7.64586666 3.76225185-18.6898963 5.70405925-37.86524445 5.70405926-56.91922963 0.12136297-16.74808889-1.45635555-33.7389037-4.49042963-50.72971852z"  horiz-adv-x="1024" />

    
    <glyph glyph-name="icon-test11" unicode="&#59077;" d="M483.84379259 269.43336296999996c-9.46631111-9.46631111-9.46631111-24.87940741 0-34.34571852 4.73315555-4.73315555 10.92266667-7.16041482 17.11217778-7.16041482s12.37902222 2.42725925 17.11217778 7.16041482L647.68379259 364.58192592c9.46631111 9.46631111 9.46631111 24.87940741 0 34.34571853L515.51952592 531.09191111c-9.46631111 9.46631111-24.87940741 9.46631111-34.34571851 0s-9.46631111-24.87940741 0-34.34571852l92.84266667-92.84266667H222.6706963c-13.34992592 0-24.27259259-10.92266667-24.2725926-24.27259259s10.92266667-24.27259259 24.2725926-24.27259258h347.09807407l-85.92497778-85.92497778zM728.87561482 617.50234075c-62.38056297 62.38056297-145.27146667 96.72628148-233.50234074 96.72628147-99.88171852 0-193.3312-44.54020741-256.43994075-122.2125037-8.49540741-10.43721482-6.91768889-25.72894815 3.51952592-34.1029926 10.43721482-8.49540741 25.72894815-6.91768889 34.1029926 3.51952593 53.76379259 66.26417778 133.49925925 104.25078518 218.69605926 104.25078518 75.24503703 0 145.99964445-29.24847408 199.15662222-82.52681481 53.15697778-53.15697778 82.52681482-123.91158518 82.52681482-199.15662222s-29.24847408-145.99964445-82.52681482-199.15662222c-53.15697778-53.15697778-123.91158518-82.52681482-199.15662222-82.52681481-83.61908148 0-162.50500741 36.89434075-216.14743703 101.09534814-8.61677037 10.31585185-23.9085037 11.65084445-34.22435556 3.03407407s-11.65084445-23.9085037-3.03407407-34.22435555c62.98737778-75.3664 155.34459259-118.57161482 253.40586666-118.57161481 88.23087408 0 171.12177778 34.34571852 233.50234074 96.72628148 62.38056297 62.38056297 96.72628148 145.27146667 96.72628148 233.50234073 0.12136297 88.35223703-34.22435555 171.24314075-96.60491851 233.62370372z"  horiz-adv-x="1024" />

    
    <glyph glyph-name="icon-test12" unicode="&#59078;" d="M862.43555555 534.528c-11.49155555 31.51644445-32.31288889 52.79288889-61.8951111 63.26044445-23.43822222 8.30577778-48.01422222 8.07822222-65.99111112 7.85066666-4.32355555 0-8.41955555-0.11377778-11.83288888 0-43.46311111 1.024-68.83555555 59.61955555-77.14133334 78.848-6.59911111 15.24622222-21.504 25.03111111-38.00177778 25.03111111H306.63111111c-45.62488889 0-82.71644445-37.09155555-82.71644444-82.71644444v-113.89155556c0-12.51555555 10.24-22.75555555 22.75555555-22.75555555s22.75555555 10.24 22.75555556 22.75555555V626.8017777800001c0 20.48 16.72533333 37.20533333 37.20533333 37.20533333h298.32533334c5.34755555-12.17422222 16.27022222-36.40888889 33.45066666-57.79911111 23.77955555-29.80977778 51.88266667-45.28355555 83.39911111-46.08 4.20977778-0.11377778 8.76088889 0 13.42577778 0 40.27733333 0.45511111 69.85955555-2.16177778 84.19555555-40.16355555v-378.65244445c0-20.48-16.72533333-37.20533333-37.20533333-37.20533333h-475.59111111c-20.48 0-37.20533333 16.72533333-37.20533333 37.20533333v61.89511111c0 12.51555555-10.24 22.75555555-22.75555556 22.75555556s-22.75555555-10.24-22.75555555-22.75555556v-61.89511111c0-45.62488889 37.09155555-82.71644445 82.71644444-82.71644445h475.59111111c45.62488889 0 82.71644445 37.09155555 82.71644445 82.71644445V520.7608888899999c-0.11377778 4.77866667-0.91022222 9.44355555-2.50311112 13.76711111zM485.03466667 252.70044444999996c-8.87466667-8.87466667-8.87466667-23.32444445 0-32.19911112 4.43733333-4.43733333 10.24-6.71288889 16.04266666-6.71288888s11.60533333 2.27555555 16.04266667 6.71288888l119.35288889 119.35288889 1.93422222 1.93422223c1.36533333 1.36533333 2.61688889 2.95822222 3.52711111 4.66488888 2.95822222 5.12 3.75466667 11.03644445 2.50311111 16.61155556-0.91022222 3.98222222-2.95822222 7.85066667-6.03022222 10.92266666l-123.79022222 124.01777778c-8.87466667 8.87466667-23.32444445 8.87466667-32.19911111 0s-8.87466667-23.32444445 0-32.19911111l87.04-87.04H181.93066667c-12.51555555 0-22.75555555-10.24-22.75555556-22.75555555s10.24-22.75555555 22.75555556-22.75555556H565.47555555l-80.44088888-80.55466666z"  horiz-adv-x="1024" />

    
    <glyph glyph-name="icon-test13" unicode="&#59079;" d="M863.91466667 334.05155555c-16.61155555 42.55288889-44.25955555 84.53688889-82.03377778 124.81422223-65.08088889 69.17688889-141.88088889 113.664-163.84 125.61066667l-5.12 2.73066666h-5.80266667c-16.61155555 0-99.44177778 0.22755555-99.89688889 0.22755556h-95.80088888l-5.12-2.73066667c-21.95911111-11.94666667-98.64533333-56.43377778-163.84-125.26933333-37.888-40.04977778-65.536-81.69244445-82.26133334-123.904-20.70755555-52.45155555-24.576-105.69955555-11.49155556-158.37866667 2.38933333-14.22222222 13.65333333-58.368 62.23644445-99.328 29.58222222-25.03111111 67.92533333-44.48711111 113.89155555-57.79911111 50.51733333-14.67733333 110.81955555-22.18666667 179.54133334-22.18666667 6.37155555 0 12.97066667 0.11377778 19.456 0.22755556 71.22488889 0.22755555 133.68888889 8.76088889 185.344 25.25866667 42.89422222 13.65333333 78.73422222 32.88177778 106.72355556 57.11644444 47.55911111 41.18755555 57.45777778 84.19555555 59.05066666 93.52533333 13.312 53.36177778 9.67111111 107.17866667-11.03644444 160.08533333z m-33.22311112-149.9591111l-0.22755555-1.13777778-0.11377778-1.13777778c-0.22755555-1.36533333-5.68888889-34.24711111-44.94222222-67.81155556-67.47022222-57.68533333-179.65511111-70.20088889-261.80266667-70.54222222h-0.34133333c-72.24888889-1.47911111-134.71288889 5.34755555-185.57155555 20.13866667-39.82222222 11.60533333-72.47644445 27.98933333-97.16622223 48.92444444-38.79822222 32.768-45.85244445 66.33244445-46.76266667 72.704l-0.11377777 1.024-0.22755556 1.024c-20.25244445 80.44088889 7.39555555 161.56444445 82.48888889 240.86755556 56.43377778 59.61955555 122.19733333 99.55555555 147.56977778 113.89155555h84.08177778c0.91022222 0 72.704-0.11377778 93.98044444-0.22755555 25.37244445-14.22222222 91.24977778-54.272 147.456-114.11911111 74.752-79.75822222 102.28622222-161.792 81.69244444-243.59822222zM611.89688889 287.40266667000003c12.51555555 0 22.75555555 10.24 22.75555556 22.75555555s-10.24 22.75555555-22.75555556 22.75555556h-64.85333334l81.23733334 85.67466667c8.64711111 9.10222222 8.30577778 23.552-0.79644444 32.1991111-9.10222222 8.64711111-23.552 8.30577778-32.19911112-0.79644444l-87.15377778-91.81866666-95.6871111 92.50133333c-8.98844445 8.76088889-23.43822222 8.53333333-32.19911112-0.56888889-8.76088889-8.98844445-8.53333333-23.43822222 0.56888889-32.19911111l87.83644445-84.87822223h-60.64355556c-12.51555555 0-22.75555555-10.24-22.75555556-22.75555555s10.24-22.75555555 22.75555556-22.75555555h79.18933334v-39.13955556h-79.18933334c-12.51555555 0-22.75555555-10.24-22.75555556-22.75555556s10.24-22.75555555 22.75555556-22.75555555h79.18933334v-62.464c0-12.51555555 10.24-22.75555555 22.75555555-22.75555556s22.75555555 10.24 22.75555555 22.75555556v62.464h79.18933334c12.51555555 0 22.75555555 10.24 22.75555556 22.75555555s-10.24 22.75555555-22.75555556 22.75555556h-79.18933334v39.13955556h79.18933334zM415.97155555 628.16711111c6.37155555-9.67111111 17.18044445-15.47377778 28.78577778-15.47377778h125.83822222c10.24 0 19.91111111 4.55111111 26.51022223 12.40177778l53.13422222 63.488c7.05422222 8.41955555 9.67111111 19.79733333 7.05422222 30.49244444-2.61688889 10.69511111-10.35377778 19.56977778-20.48 23.66577778-41.30133333 16.83911111-148.25244445 50.97244445-250.53866667 3.072-9.78488889-4.55111111-16.95288889-13.08444445-19.456-23.32444444-2.38933333-9.44355555-0.45511111-19.456 5.34755556-27.53422222l43.80444444-66.78755556z m189.44 77.71022222l-39.82222222-47.67288888h-114.91555555l-33.792 51.2c72.93155555 28.89955555 148.36622222 10.80888889 188.52977777-3.52711112z"  horiz-adv-x="1024" />

    
    <glyph glyph-name="icon-test14" unicode="&#59080;" d="M333.824 220.04622222c-12.51555555 0-22.75555555 10.24-22.75555555 22.75555556V402.54577778c0 12.51555555 10.24 22.75555555 22.75555555 22.75555555s22.75555555-10.24 22.75555555-22.75555555v-159.744c0-12.51555555-10.24-22.75555555-22.75555555-22.75555556zM514.16177778 220.04622222c-12.51555555 0-22.75555555 10.24-22.75555556 22.75555556V524.06044445c0 12.51555555 10.24 22.75555555 22.75555556 22.75555555s22.75555555-10.24 22.75555555-22.75555555v-281.25866667c0-12.51555555-10.24-22.75555555-22.75555555-22.75555556zM694.49955555 220.04622222c-12.51555555 0-22.75555555 10.24-22.75555555 22.75555556V639.0897777800001c0 12.51555555 10.24 22.75555555 22.75555555 22.75555555s22.75555555-10.24 22.75555556-22.75555555v-396.288c0-12.51555555-10.12622222-22.75555555-22.75555556-22.75555556zM783.36 106.15466666999998h-542.72c-12.51555555 0-22.75555555 10.24-22.75555555 22.75555555s10.24 22.75555555 22.75555555 22.75555556h542.72c12.51555555 0 22.75555555-10.24 22.75555555-22.75555556s-10.12622222-22.75555555-22.75555555-22.75555555z"  horiz-adv-x="1024" />

    
    <glyph glyph-name="icon-test15" unicode="&#59081;" d="M827.52 581.65333333L525.44 756.05333333c-8.21333333 4.69333333-18.66666667 4.69333333-26.88 0L196.48 581.65333333c-8.21333333-4.69333333-13.44-13.86666667-13.44-23.25333333v-348.8c0-9.38666667 5.22666667-18.56 13.44-23.25333333l302.08-174.4c4.05333333-2.34666667 8.74666667-3.52 13.44-3.52s9.38666667 1.17333333 13.44 3.52l302.08 174.4c8.21333333 4.69333333 13.44 13.86666667 13.44 23.25333333v348.8c0 9.38666667-5.33333333 18.56-13.44 23.25333333zM699.84 468.37333333l-165.22666667-95.78666666 0.32-191.04c0-11.73333333-9.49333333-21.33333333-21.33333333-21.33333334-11.73333333 0-21.33333333 9.49333333-21.33333333 21.33333334l-0.32 191.04L326.4 467.84c-10.24 5.86666667-13.76 18.88-7.89333333 29.12 5.86666667 10.24 18.88 13.76 29.12 7.89333333L513.17333333 409.6 678.4 505.28c10.24 5.86666667 23.25333333 2.45333333 29.12-7.78666667 5.97333333-10.13333333 2.45333333-23.25333333-7.68-29.12z"  horiz-adv-x="1024" />

    
    <glyph glyph-name="icon-test16" unicode="&#59082;" d="M858.02666667 334.29333333c-16.32 41.81333333-43.52 83.09333333-80.74666667 122.77333334-64.10666667 68.16-139.62666667 111.89333333-161.28 123.62666666l-4.8 2.56h-5.44c-16.42666667 0-98.13333333 0.21333333-98.45333333 0.21333334h-94.18666667l-4.8-2.56c-21.65333333-11.84-97.17333333-55.57333333-161.28-123.30666667-37.22666667-39.36-64.42666667-80.32-80.85333333-121.81333333-20.37333333-51.52-24.21333333-103.78666667-11.30666667-155.52 2.34666667-13.86666667 13.33333333-57.17333333 61.01333333-97.38666667 29.12-24.53333333 66.77333333-43.62666667 111.89333334-56.74666667C377.49333333 11.626666669999963 436.90666667 4.26666666999995 504.53333333 4.26666666999995c6.29333333 0 12.69333333 0.10666667 19.2 0.21333333 70.18666667 0.32 131.52 8.64 182.50666667 24.85333333 42.13333333 13.44 77.44 32.32 104.85333333 56.10666667 46.72 40.42666667 56.32 82.66666667 57.92 91.52 12.90666667 52.48 9.28 105.38666667-10.98666666 157.33333333z m-247.57333334-85.22666666c11.73333333 0 21.33333333-9.6 21.33333334-21.33333334s-9.6-21.33333333-21.33333334-21.33333333H531.2v-62.61333333c0-11.73333333-9.6-21.33333333-21.33333333-21.33333334s-21.33333333 9.6-21.33333334 21.33333334v62.61333333h-79.25333333c-11.73333333 0-21.33333333 9.6-21.33333333 21.33333333s9.6 21.33333333 21.33333333 21.33333334H488.53333333v40.85333333h-79.25333333c-11.73333333 0-21.33333333 9.6-21.33333333 21.33333333s9.6 21.33333333 21.33333333 21.33333334h62.61333333l-88.53333333 85.65333333c-8.42666667 8.21333333-8.74666667 21.65333333-0.53333333 30.18666667s21.65333333 8.74666667 30.18666666 0.53333333l95.14666667-92.05333333 86.61333333 91.41333333c8.10666667 8.53333333 21.65333333 8.85333333 30.18666667 0.74666667 8.53333333-8.10666667 8.96-21.65333333 0.74666667-30.18666667l-81.70666667-86.4h66.56c11.73333333 0 21.33333333-9.6 21.33333333-21.33333333s-9.6-21.33333333-21.33333333-21.33333334h-79.25333333v-40.85333333h79.14666666zM418.24 625.3866666700001c6.08-9.28 16.42666667-14.82666667 27.52-14.82666667h124.16c9.81333333 0 18.98666667 4.26666667 25.28 11.84l52.37333333 62.61333333c6.72 8 9.28 18.88 6.72 29.01333334-2.56 10.24-9.81333333 18.66666667-19.62666666 22.61333333-40.53333333 16.53333333-145.70666667 50.02666667-246.18666667 2.98666667-9.38666667-4.37333333-16.21333333-12.48-18.56-22.29333334-2.24-9.06666667-0.42666667-18.56 5.12-26.24l43.2-65.70666666z"  horiz-adv-x="1024" />

    
    <glyph glyph-name="icon-test17" unicode="&#59083;" d="M861.44 738.77333333H162.56c-11.73333333 0-21.33333333-9.6-21.33333333-21.33333333s9.6-21.33333333 21.33333333-21.33333333H193.06666667v-401.92c0-46.4 37.76-84.16 84.16-84.16h147.84l-84.26666667-149.01333334c-5.76-10.24-2.13333333-23.25333333 8.10666667-29.12 3.30666667-1.92 6.93333333-2.77333333 10.45333333-2.77333333 7.46666667 0 14.72 3.94666667 18.56 10.88l94.08 166.4c0.64 1.17333333 1.17333333 2.34666667 1.6 3.62666667h76.58666667c0.42666667-1.28 0.96-2.45333333 1.6-3.62666667l94.08-166.4c3.94666667-6.93333333 11.2-10.88 18.56-10.88 3.52 0 7.14666667 0.85333333 10.45333333 2.77333333 10.24 5.76 13.86666667 18.77333333 8.10666667 29.12l-84.26666667 149.01333334h147.84c46.4 0 84.16 37.76 84.16 84.16V696.10666667h30.4c11.73333333 0 21.33333333 9.6 21.33333333 21.33333333s-9.28 21.33333333-21.01333333 21.33333333zM395.73333333 351.46666667c0-11.73333333-9.6-21.33333333-21.33333333-21.33333334s-21.33333333 9.6-21.33333333 21.33333334v81.06666666c0 11.73333333 9.6 21.33333333 21.33333333 21.33333334s21.33333333-9.6 21.33333333-21.33333334v-81.06666666z m137.92 0c0-11.73333333-9.6-21.33333333-21.33333333-21.33333334s-21.33333333 9.6-21.33333333 21.33333334V608.96c0 11.73333333 9.6 21.33333333 21.33333333 21.33333333s21.33333333-9.6 21.33333333-21.33333333v-257.49333333z m137.6-9.70666667c0-11.73333333-9.6-21.33333333-21.33333333-21.33333333s-21.33333333 9.6-21.33333333 21.33333333V543.89333333c0 11.73333333 9.6 21.33333333 21.33333333 21.33333334s21.33333333-9.6 21.33333333-21.33333334v-202.13333333z"  horiz-adv-x="1024" />

    
    <glyph glyph-name="icon-test18" unicode="&#59084;" d="M517.01333333 725.9733333300001c-95.68 0-173.54666667-77.86666667-173.54666666-173.54666666 0-95.68 77.86666667-173.54666667 173.54666666-173.54666667 95.68 0 173.54666667 77.86666667 173.54666667 173.54666667 0.10666667 95.68-77.76 173.54666667-173.54666667 173.54666666zM874.66666667 251.41333333c-3.41333333 17.06666667-18.13333333 29.86666667-35.62666667 30.93333334-2.34666667 0.10666667-6.08 0.85333333-11.52 4.58666666-6.08 4.26666667-10.13333333 10.34666667-10.88 16.32-0.42666667 3.94666667 0 7.68 1.49333333 11.30666667 6.61333333 16.42666667 1.81333333 35.09333333-11.62666666 45.44-11.41333333 8.74666667-23.89333333 16.21333333-36.90666667 21.97333333-17.49333333 7.78666667-37.97333333 1.17333333-48.64-15.68-4.37333333-6.93333333-11.84-10.98666667-19.94666667-10.98666666-8.74666667 0-16.74666667 4.8-20.90666666 12.58666666-8.96 16.96-29.44 24.64-47.57333334 17.81333334-15.78666667-5.86666667-30.72-13.97333333-44.26666666-24-14.4-10.66666667-19.41333333-29.97333333-12.37333334-47.04 1.17333333-2.88 1.81333333-5.97333333 1.70666667-9.17333334-0.10666667-4.16-2.45333333-8.96-6.61333333-13.12-9.70666667-9.81333333-14.93333333-10.02666667-16.64-10.13333333-18.02666667-0.64-32.96-13.44-36.58666667-31.04-2.34666667-11.73333333-3.52-23.89333333-3.52-35.94666667 0-16.74666667 5.44-42.66666667 6.08-45.65333333 2.66666667-12.16 14.29333333-20.26666667 26.56-18.34666667 0.64 0.10666667 1.70666667 0.21333333 2.13333333 0.21333334 13.12 0 23.78666667-10.66666667 23.78666667-23.78666667 0-2.98666667-0.64-5.97333333-1.81333333-8.74666667-6.72-16.10666667-2.13333333-34.88 11.30666666-45.65333333 15.68-12.58666667 33.17333333-22.4 52.05333334-29.22666667 4.26666667-1.49333333 8.64-2.24 13.01333333-2.24 13.22666667 0 26.02666667 6.93333333 33.49333333 19.09333334 4.37333333 7.04 11.84 11.2 20.05333334 11.2 7.68 0 14.72-3.62666667 19.2-10.02666667 11.09333333-15.78666667 30.61333333-21.65333333 47.68-14.4 13.97333333 5.97333333 27.30666667 13.86666667 39.46666666 23.36 14.18666667 10.98666667 18.77333333 30.4 11.2 47.25333333-1.38666667 3.2-2.13333333 6.50666667-2.02666666 9.92 0.10666667 4.58666667 2.66666667 9.6 7.04 13.86666667 9.06666667 8.85333333 14.18666667 9.17333333 15.89333333 9.17333333 17.92 1.06666667 32.64 14.08 35.94666667 31.57333334 1.92 10.66666667 2.98666667 21.54666667 2.98666666 32.21333333 0 12.48-1.17333333 24.64-3.62666666 36.37333333zM696.21333333 143.57333332999997c-39.46666667 0-71.68 32.10666667-71.68 71.68s32.10666667 71.68 71.68 71.68 71.68-32.10666667 71.68-71.68-32.21333333-71.68-71.68-71.68zM696.21333333 265.49333333000004c-27.73333333 0-50.34666667-22.61333333-50.34666666-50.34666666s22.61333333-50.34666667 50.34666666-50.34666667 50.34666667 22.61333333 50.34666667 50.34666667-22.61333333 50.34666667-50.34666667 50.34666666zM517.01333333 346.77333333c-51.52 0-98.66666667 19.09333333-134.82666666 50.45333334-48-16.64-92.05333333-42.77333333-129.38666667-77.33333334-33.49333333-31.04-59.94666667-67.30666667-78.29333333-107.62666666-19.09333333-41.92-28.8-86.4-28.8-132.37333334 0-4.90666667 0.10666667-9.81333333 0.32-14.72 0.10666667-1.38666667 1.17333333-2.45333333 2.56-2.45333333h408.64c2.13333333 0 3.30666667 2.45333333 2.02666666 4.05333333-13.01333333 16.85333333-16.42666667 40.10666667-7.89333333 60.58666667 0.10666667 0.21333333 0.10666667 0.32 0.10666667 0.42666667 0 0.32-0.10666667 0.64-0.21333334 0.96-0.42666667 0.96-1.49333333 1.38666667-2.56 1.28-1.81333333-0.21333333-3.62666667-0.32-5.44-0.32-21.01333333 0-39.46666667 14.93333333-43.84 35.52-1.06666667 5.12-6.50666667 31.46666667-6.50666666 50.13333333 0 13.44 1.38666667 26.98666667 3.94666666 40.10666667 5.33333333 26.34666667 27.2 45.76 53.86666667 48 0.53333333 0 0.96 0.21333333 1.38666667 0.53333333 0.64 0.53333333 1.49333333 1.17333333 2.56 2.24 0.74666667 0.74666667 0.96 1.81333333 0.64 2.77333333-5.01333333 13.65333333-5.01333333 28.16-0.53333334 41.17333334-12.37333333-2.24-24.85333333-3.41333333-37.76-3.41333334z"  horiz-adv-x="1024" />

    
    <glyph glyph-name="tubiaozhizuomoban" unicode="&#59085;" d="M791.74162963 663.37754075h-559.48325926c-46.96746667 0-85.31816297-38.22933333-85.31816296-85.31816297V189.81925924999996c0-46.96746667 38.22933333-85.31816297 85.31816296-85.31816295h559.48325926c46.96746667 0 85.31816297 38.22933333 85.31816296 85.31816295V578.18074075c0 46.96746667-38.22933333 85.1968-85.31816296 85.1968z m0-29.12711112c10.31585185 0 19.90352592-2.79134815 28.1562074-7.64586666L528.50536297 420.40888889c-9.95176297-7.03905185-23.30168889-7.03905185-33.25345186-0.24272592L199.49037037 623.6918518499999c9.22358518 6.67496297 20.51034075 10.55857778 32.768 10.55857778h559.48325926zM847.93268148 189.81925924999996c0-30.94755555-25.2434963-56.19105185-56.19105185-56.19105184h-559.48325926c-30.94755555 0-56.19105185 25.2434963-56.19105185 56.19105184V578.18074075c0 8.13131852 1.82044445 15.89854815 4.97588148 22.9376l297.70334815-204.8606815c9.95176297-6.79632592 21.48124445-10.19448889 33.01072593-10.19448888 11.77220741 0 23.54441482 3.51952592 33.61754074 10.67994074l295.39745185 208.98702222c4.61179259-8.13131852 7.28177778-17.47626667 7.28177778-27.54939258v-388.3614815z"  horiz-adv-x="1024" />

    
    <glyph glyph-name="icon-test7" unicode="&#59086;" d="M346.4 434.2L492 579.8v-338.3c0-11 9-20 20-20s20 9 20 20V579.8l145.6-145.6c3.9-3.9 9-5.9 14.1-5.9s10.2 2 14.1 5.9c7.8 7.8 7.8 20.5 0 28.3L526.1 642.2c-0.5 0.5-0.9 0.9-1.4 1.3-0.2 0.2-0.5 0.4-0.7 0.5l-0.9 0.6c-0.3 0.2-0.6 0.4-0.9 0.5-0.3 0.2-0.5 0.3-0.8 0.5-0.3 0.2-0.6 0.3-0.9 0.4-0.3 0.1-0.6 0.3-0.9 0.4l-0.9 0.3-0.9 0.3c-0.3 0.1-0.6 0.2-0.9 0.2-0.3 0.1-0.7 0.2-1 0.2-0.4 0.1-0.7 0.1-1.1 0.2-0.3 0-0.6 0.1-0.9 0.1-0.7 0.1-1.3 0.1-2 0.1s-1.3 0-2-0.1c-0.3 0-0.6-0.1-0.9-0.1-0.3-0.1-0.7-0.1-1-0.2-0.3-0.1-0.7-0.2-1-0.2-0.3-0.1-0.6-0.1-0.9-0.2-0.3-0.1-0.6-0.2-1-0.3l-0.9-0.3c-0.3-0.1-0.6-0.3-0.9-0.4-0.3-0.1-0.6-0.3-0.9-0.4-0.3-0.2-0.5-0.3-0.8-0.5-0.3-0.2-0.6-0.3-0.9-0.5l-0.9-0.6c-0.2-0.2-0.5-0.3-0.7-0.5-0.5-0.4-1-0.9-1.5-1.3L318.1 462.5c-7.8-7.8-7.8-20.5 0-28.3s20.5-7.8 28.3 0zM777.7 331.1c-11 0-20-9-20-20v-131.5c0-10.9-8.9-19.8-19.8-19.8H286c-10.9 0-19.8 8.9-19.8 19.8V311.1c0 11-9 20-20 20s-20-9-20-20v-131.5c0-33 26.8-59.8 59.8-59.8h452c33 0 59.8 26.8 59.8 59.8V311.1c-0.1 11.1-9 20-20.1 20z"  horiz-adv-x="1024" />

    
    <glyph glyph-name="icon-test19" unicode="&#59087;" d="M458.47460937 661.55859375H244.98828125c-9.66796875 0-17.578125-7.91015625-17.578125-17.578125v-213.48632813c0-9.66796875 7.91015625-17.578125 17.578125-17.57812499h213.48632813c9.66796875 0 17.578125 7.91015625 17.57812499 17.578125V643.98046875c0 9.75585938-7.82226563 17.578125-17.578125 17.578125zM779.01171875 661.55859375H565.52539063c-9.66796875 0-17.578125-7.91015625-17.578125-17.578125v-213.48632813c0-9.66796875 7.91015625-17.578125 17.578125-17.57812499h213.48632812c9.66796875 0 17.578125 7.91015625 17.578125 17.578125V643.98046875c0 9.75585938-7.82226563 17.578125-17.578125 17.578125zM458.47460937 355.08398437000005H244.98828125c-9.66796875 0-17.578125-7.91015625-17.578125-17.57812499v-213.48632813c0-9.66796875 7.91015625-17.578125 17.578125-17.578125h213.48632813c9.66796875 0 17.578125 7.91015625 17.57812499 17.578125V337.50585937000005c0 9.75585938-7.82226563 17.578125-17.578125 17.578125zM779.01171875 355.08398437000005H565.52539063c-9.66796875 0-17.578125-7.91015625-17.578125-17.57812499v-213.48632813c0-9.66796875 7.91015625-17.578125 17.578125-17.578125h213.48632812c9.66796875 0 17.578125 7.91015625 17.578125 17.578125V337.50585937000005c0 9.75585938-7.82226563 17.578125-17.578125 17.578125z"  horiz-adv-x="1024" />

    
    <glyph glyph-name="icon-test20" unicode="&#59088;" d="M773.7709304 350.20029586c0.14142136 11.03086579-8.55599205 20.15254326-19.65756852 20.3646753-11.03086579 0.14142136-20.15254326-8.55599205-20.3646753-19.65756852-1.13137085-65.33666658-27.1529004-126.71353519-73.39768389-172.95831868-47.37615434-47.37615434-110.30865787-73.39768389-177.27167004-73.46839456S353.3252383 130.57292961999997 305.94908396 177.94908396000005s-73.46839457 110.23794719-73.46839456 177.27167005c0 66.8923015 26.09224023 129.8955157 73.46839456 177.27167004s110.30865787 73.39768389 177.27167005 73.46839456c59.96265504 0 116.74332957-21.0010714 161.99816357-59.32625894l-71.13494219 0c-11.03086579 0-20.01112191-8.98025612-20.01112191-20.0111219 0-5.51543289 2.19203102-10.53589104 5.79827561-14.14213563s8.62670273-5.79827561 14.14213562-5.7982756l117.9454111 0c11.03086579 0 20.01112191 8.98025612 20.01112191 20.0111219l0 117.94541111c0 11.03086579-8.98025612 20.01112191-20.01112191 20.0111219s-20.01112191-8.98025612-20.01112191-20.0111219l0-68.30651507c-52.53803384 45.04270196-118.79393924 69.57930727-188.72679989 69.65001795-77.64032457 0-150.61374439-30.26417023-205.48523062-85.13565646s-85.13565645-127.84490604-85.13565645-205.48523061c0-77.64032457 30.26417023-150.61374439 85.13565645-205.48523061s127.84490604-85.13565645 205.48523062-85.13565646 150.61374439 30.26417023 205.48523061 85.13565646c53.59869401 53.3158513 83.79215357 124.52150417 85.06494578 200.32335111z"  horiz-adv-x="1024" />

    
    <glyph glyph-name="icon-test21" unicode="&#59089;" d="M766.6081543 593.53674317H257.3918457c-9.0637207 0-16.47949219 7.41577148-16.47949218 16.47949218s7.41577148 16.47949219 16.47949218 16.47949218h509.2163086c9.0637207 0 16.47949219-7.41577148 16.47949218-16.47949218s-7.33337403-16.47949219-16.47949218-16.47949219zM766.6081543 442.83178711H257.3918457c-9.0637207 0-16.47949219 7.41577148-16.47949218 16.47949219s7.41577148 16.47949219 16.47949218 16.47949218h509.2163086c9.0637207 0 16.47949219-7.41577148 16.47949218-16.47949218s-7.33337403-16.47949219-16.47949218-16.47949219zM766.6081543 292.20922852H257.3918457c-9.0637207 0-16.47949219 7.41577148-16.47949218 16.47949218s7.41577148 16.47949219 16.47949218 16.47949219h509.2163086c9.0637207 0 16.47949219-7.41577148 16.47949218-16.47949219s-7.33337403-16.47949219-16.47949218-16.47949218zM766.6081543 141.50427246000004H257.3918457c-9.0637207 0-16.47949219 7.41577148-16.47949218 16.47949219s7.41577148 16.47949219 16.47949218 16.47949219h509.2163086c9.0637207 0 16.47949219-7.41577148 16.47949218-16.47949219s-7.33337403-16.47949219-16.47949218-16.47949218z"  horiz-adv-x="1024" />

    
    <glyph glyph-name="icon-test22" unicode="&#59090;" d="M774.6 449.4L526.1 697.9c-0.5 0.5-0.9 0.9-1.4 1.3-0.2 0.2-0.5 0.4-0.7 0.5l-0.9 0.6c-0.3 0.2-0.6 0.4-0.9 0.5-0.3 0.2-0.5 0.3-0.8 0.5-0.3 0.2-0.6 0.3-0.9 0.4-0.3 0.1-0.6 0.3-0.9 0.4l-0.9 0.3-0.9 0.3c-0.3 0.1-0.6 0.2-0.9 0.2-0.3 0.1-0.7 0.2-1 0.2-0.4 0.1-0.7 0.1-1.1 0.2-0.3 0-0.6 0.1-0.9 0.1-0.7 0.1-1.3 0.1-2 0.1s-1.3 0-2-0.1c-0.3 0-0.6-0.1-0.9-0.1-0.3-0.1-0.7-0.1-1-0.2-0.3-0.1-0.7-0.2-1-0.2-0.3-0.1-0.6-0.1-0.9-0.2-0.3-0.1-0.6-0.2-1-0.3l-0.9-0.3c-0.3-0.1-0.6-0.3-0.9-0.4-0.3-0.1-0.6-0.3-0.9-0.4-0.3-0.2-0.5-0.3-0.8-0.5-0.3-0.2-0.6-0.3-0.9-0.5l-0.9-0.6c-0.2-0.2-0.5-0.3-0.7-0.5-0.5-0.4-1-0.9-1.5-1.3L249.4 449.4c-7.8-7.8-7.8-20.5 0-28.3s20.5-7.8 28.3 0L492 635.4v-551.2c0-11 9-20 20-20s20 9 20 20V635.4L746.4 421c3.9-3.9 9-5.9 14.1-5.9s10.2 2 14.1 5.9c7.9 7.9 7.9 20.6 0 28.4z"  horiz-adv-x="1024" />

    
    <glyph glyph-name="icon-test23" unicode="&#59091;" d="M822.1 59.1c-5.1 0-10.2 2-14.1 5.9L675 197.9c-7.7 7.7-7.8 20.1-0.4 27.9 46.5 49 72.2 113.2 72.2 180.7 0 70.1-27.3 136-76.9 185.6-49.6 49.6-115.5 76.9-185.6 76.9s-136-27.3-185.6-76.9-76.9-115.5-76.9-185.6 27.3-136 76.9-185.6c49.6-49.6 115.5-76.9 185.6-76.9 34 0 67.1 6.4 98.4 19.1 10.2 4.1 21.9-0.8 26-11 4.1-10.2-0.8-21.9-11-26-36-14.6-74.2-22-113.4-22-80.8 0-156.7 31.5-213.9 88.6-57.1 57.1-88.6 133.1-88.6 213.9 0 80.8 31.5 156.7 88.6 213.9s133.1 88.6 213.9 88.6 156.7-31.5 213.9-88.6c57.1-57.1 88.6-133.1 88.6-213.9 0-71.3-24.8-139.4-70.2-193.7l119.6-119.6c7.8-7.8 7.8-20.5 0-28.3-3.9-4-9-5.9-14.1-5.9z"  horiz-adv-x="1024" />

    
    <glyph glyph-name="icon-test26" unicode="&#59094;" d="M831.4 342.8c-5.1 0-10.2 2-14.1 5.9L512 653.9 206.8 348.6c-7.8-7.8-20.5-7.8-28.3 0-7.8 7.8-7.8 20.5 0 28.3l319.4 319.4c7.8 7.8 20.5 7.8 28.3 0l319.4-319.4c7.8-7.8 7.8-20.5 0-28.3-4-3.9-9.1-5.8-14.2-5.8zM589.9 65.8c-11 0-20 9-20 20V263.3c0 31.9-26 57.9-57.9 57.9s-57.9-26-57.9-57.9v-177.4c0-11-9-20-20-20s-20 9-20 20V263.3c0 54 43.9 97.9 97.9 97.9s97.9-43.9 97.9-97.9v-177.4c0-11.1-9-20.1-20-20.1zM699.6 65.8H324.4c-28.1 0-50.9 22.8-50.9 50.9V345.2c0 11 9 20 20 20s20-9 20-20v-228.5c0-6 4.9-10.9 10.9-10.9h375.1c6 0 10.9 4.9 10.9 10.9V345.2c0 11 9 20 20 20s20-9 20-20v-228.5c0-28-22.8-50.9-50.8-50.9z"  horiz-adv-x="1024" />

    
    <glyph glyph-name="icon-test24" unicode="&#59092;" d="M512 66.75c-42.84375 0-84.375 8.34375-123.46875 24.9375-37.78125 15.9375-71.71875 38.8125-100.875 67.96875-29.15625 29.15625-52.03125 63.09375-67.96875 100.875-16.59375 39.09375-24.9375 80.625-24.9375 123.46875s8.34375 84.375 24.9375 123.46875c15.9375 37.78125 38.8125 71.71875 67.96875 100.875 29.15625 29.15625 63.09375 52.03125 100.875 67.96875 39.09375 16.59375 80.625 24.9375 123.46875 24.9375s84.375-8.34375 123.46875-24.9375c37.78125-15.9375 71.71875-38.8125 100.875-67.96875 29.15625-29.15625 52.03125-63.09375 67.96875-100.875 16.59375-39.09375 24.9375-80.625 24.9375-123.46875s-8.34375-84.375-24.9375-123.46875c-15.9375-37.78125-38.8125-71.71875-67.96875-100.875s-63.09375-52.03125-100.875-67.96875c-39.09375-16.5-80.625-24.9375-123.46875-24.9375z m0 597c-74.71875 0-144.9375-29.0625-197.8125-81.9375s-81.9375-123.09375-81.9375-197.8125 29.0625-144.9375 81.9375-197.8125 123.09375-81.9375 197.8125-81.9375 144.9375 29.0625 197.8125 81.9375 81.9375 123.09375 81.9375 197.8125-29.0625 144.9375-81.9375 197.8125-123.09375 81.9375-197.8125 81.9375zM398.28125 384m-37.03125 0a37.03125 37.03125 0 1 1 74.0625 0 37.03125 37.03125 0 1 1-74.0625 0ZM512 384m-37.03125 0a37.03125 37.03125 0 1 1 74.0625 0 37.03125 37.03125 0 1 1-74.0625 0ZM625.71875 384m-37.03125 0a37.03125 37.03125 0 1 1 74.0625 0 37.03125 37.03125 0 1 1-74.0625 0Z"  horiz-adv-x="1024" />

    
    <glyph glyph-name="icon-test25" unicode="&#59093;" d="M448.42666667 177.70666667c-8.64 0-15.78666667 6.93333333-16 15.68l-6.4 279.46666666c-0.21333333 8.85333333 6.82666667 16.10666667 15.68 16.32 8.85333333 0.21333333 16.10666667-6.82666667 16.32-15.68l6.4-279.46666666c0.21333333-8.85333333-6.82666667-16.10666667-15.68-16.32h-0.32zM582.08 177.70666667h-0.32c-8.85333333 0.21333333-15.78666667 7.57333333-15.68 16.32l6.4 279.46666666c0.21333333 8.85333333 7.57333333 15.78666667 16.32 15.68 8.85333333-0.21333333 15.78666667-7.57333333 15.68-16.32l-6.4-279.46666666c-0.21333333-8.74666667-7.36-15.68-16-15.68zM821.65333333 583.6800000000001H695.36v31.46666667c0 43.94666667-35.73333333 79.78666667-79.78666667 79.78666666H425.28c-43.94666667 0-79.78666667-35.73333333-79.78666667-79.78666666v-31.46666667H214.4c-11.73333333 0-21.33333333-9.6-21.33333333-21.33333333s9.6-21.33333333 21.33333333-21.33333334h80.21333333l9.06666667-357.33333333c0.10666667-58.77333333 48-106.45333333 106.77333333-106.45333333h215.14666667c58.77333333 0 106.66666667 47.78666667 106.77333333 106.45333333l9.06666667 357.33333333h80.21333333c11.73333333 0 21.33333333 9.6 21.33333334 21.33333334s-9.49333333 21.33333333-21.33333334 21.33333333z m-433.49333333 31.46666667c0 20.48 16.64 37.12 37.12 37.12h190.29333333c20.48 0 37.12-16.64 37.12-37.12v-31.46666667h-264.53333333v31.46666667z m301.54666667-430.72v-0.53333334c0-35.30666667-28.8-64.10666667-64.10666667-64.10666666H410.45333333c-35.30666667 0-64.10666667 28.8-64.10666666 64.10666666v0.32l-9.06666667 356.8h361.6l-9.17333333-356.58666666z"  horiz-adv-x="1024" />

    
    <glyph glyph-name="icon-test27" unicode="&#59095;" d="M512 16.877037029999997c-15.17037037 0-29.61256297 4.73315555-41.74885925 13.71401482l-146.24237038 107.52758518c-88.59496297 65.17191111-141.50921482 169.66542222-141.50921482 279.62026667V597.9629037c0 30.58346667 19.53943703 57.52604445 48.66654815 66.8709926l253.89131852 82.16272592c17.47626667 5.5826963 36.53025185 5.5826963 53.88515556 0l253.89131852-82.16272592c29.00574815-9.34494815 48.66654815-36.16616297 48.66654815-66.74962963v-180.34536297c0-109.95484445-52.91425185-214.44835555-141.50921482-279.62026667l-146.36373333-107.64894814c-12.25765925-8.98085925-26.57848889-13.59265185-41.6274963-13.59265186z m0 697.83703705c-5.33997037 0-10.67994075-0.84954075-15.89854815-2.42725926l-253.76995555-82.04136297c-14.0781037-4.49042963-23.42305185-17.47626667-23.42305185-32.16118518v-180.34536297c0-98.42536297 47.33155555-191.99620741 126.70293333-250.25042962l146.36373333-107.64894816c5.82542222-4.36906667 12.74311111-6.5536 20.02488889-6.5536s14.19946667 2.3058963 20.14625185 6.5536l146.36373333 107.64894816c79.25001482 58.25422222 126.70293333 151.82506667 126.70293334 250.25042962V597.9629037c0 14.68491852-9.46631111 27.67075555-23.54441482 32.16118519L527.77718518 712.28681482c-5.09724445 1.69908148-10.43721482 2.42725925-15.77718518 2.42725926zM512 215.42684444999998c-9.34494815 0-17.71899259 7.5245037-17.71899259 13.34992592V493.95484445H349.73771852c-6.18951111 0-13.34992592 13.34992592-13.34992593 21.9666963 0 3.51952592 1.45635555 7.03905185 3.88361482 9.4663111 2.54862222 2.54862222 5.82542222 3.88361482 9.46631111 3.88361482h324.64592593c3.64088889 0 6.91768889-1.33499259 9.4663111-3.88361482 2.54862222-2.54862222 3.88361482-5.94678518 3.88361482-9.4663111 0-8.73813333-7.16041482-21.9666963-13.34992592-21.9666963H530.44717037v-265.05671112c0-6.79632592-10.55857778-13.47128889-18.44717037-13.47128888z"  horiz-adv-x="1024" />

    
    <glyph glyph-name="icon-test28" unicode="&#59096;" d="M733.65333333 268.58666667c-37.97333333 37.97333333-84.05333333 65.06666667-134.4 79.57333333 69.01333333 32.85333333 116.8 103.25333333 116.8 184.53333333 0 112.64-91.62666667 204.26666667-204.26666666 204.26666667S307.52 645.33333333 307.52 532.69333333c0-81.38666667 47.89333333-151.78666667 116.90666667-184.64-50.13333333-14.50666667-96.21333333-41.49333333-134.18666667-79.46666666C231.04 209.38666666999995 198.4 130.66666667000004 198.4 46.93333332999998c0-8.85333333 7.14666667-16 16-16s16 7.14666667 16 16c0 75.2 29.33333333 145.92 82.45333333 199.04 53.22666667 53.22666667 123.84 82.45333333 199.04 82.45333334s145.92-29.33333333 199.04-82.45333334c53.22666667-53.22666667 82.45333333-123.84 82.45333334-199.04 0-8.85333333 7.14666667-16 16-16s16 7.14666667 16 16c0.10666667 83.73333333-32.42666667 162.45333333-91.73333334 221.65333334zM339.52 532.8c0 95.04 77.33333333 172.26666667 172.26666667 172.26666667 95.04 0 172.26666667-77.33333333 172.26666666-172.26666667S606.72 360.53333333 511.78666667 360.53333333c-94.93333333-0.10666667-172.26666667 77.22666667-172.26666667 172.26666667z"  horiz-adv-x="1024" />

    
    <glyph glyph-name="icon-test29" unicode="&#59097;" d="M754.688 393.55733333H309.13422222V507.79022222c0 108.31644445 88.17777778 196.49422222 196.49422223 196.49422223 108.31644445 0 196.49422222-88.17777778 196.49422222-196.49422223 0-9.44355555 7.62311111-17.06666667 17.06666666-17.06666667s17.06666667 7.62311111 17.06666667 17.06666667c0 127.20355555-103.424 230.62755555-230.62755555 230.62755556-127.20355555 0-230.62755555-103.424-230.62755556-230.62755556v-114.23288889h-5.68888889c-34.47466667 0-62.57777778-28.10311111-62.57777778-62.57777778v-238.81955555c0-34.47466667 28.10311111-62.57777778 62.57777778-62.57777778h485.26222222c34.47466667 0 62.57777778 28.10311111 62.57777778 62.57777778V330.97955555c0.11377778 34.47466667-27.98933333 62.57777778-62.464 62.57777778z m28.44444445-301.51111111c0-15.70133333-12.74311111-28.44444445-28.44444445-28.44444444H269.312c-15.70133333 0-28.44444445 12.74311111-28.44444445 28.44444444v238.93333333c0 15.70133333 12.74311111 28.44444445 28.44444445 28.44444445h485.26222222c15.70133333 0 28.44444445-12.74311111 28.44444445-28.44444445v-238.93333333zM547.04355555 262.71288889000004c0 18.77333333-15.13244445 33.90577778-33.90577777 33.90577778s-33.90577778-15.13244445-33.90577778-33.90577778c0-12.51555555 6.82666667-23.43822222 16.83911111-29.24088889v-61.32622222h32.768V232.67555555c10.80888889 5.68888889 18.20444445 16.95288889 18.20444444 30.03733334zM528.95288889 173.62488888999997c0-9.10222222-7.39555555-46.76266667-16.61155556-46.76266667-9.10222222 0-16.49777778 37.66044445-16.49777778 46.76266667s7.39555555 16.49777778 16.49777778 16.49777778c9.10222222 0.11377778 16.61155555-7.28177778 16.61155556-16.49777778z"  horiz-adv-x="1024" />

    
    <glyph glyph-name="icon-test30" unicode="&#59098;" d="M765.72444445 642.38933333H258.27555555c-45.62488889 0-82.71644445-37.09155555-82.71644444-82.71644444v-351.34577778c0-45.62488889 37.09155555-82.71644445 82.71644444-82.71644444h507.4488889c45.62488889 0 82.71644445 37.09155555 82.71644444 82.71644444V559.67288889c0 45.62488889-37.09155555 82.71644445-82.71644444 82.71644444z m0-34.13333333c6.59911111 0 12.97066667-1.36533333 18.65955555-3.75466667l-261.68888889-181.58933333c-6.48533333-4.43733333-15.13244445-4.43733333-21.504 0l-261.68888889 181.58933333c5.80266667 2.38933333 12.06044445 3.75466667 18.65955556 3.75466667H765.72444445z m48.5831111-399.92888889c0-26.85155555-21.84533333-48.58311111-48.5831111-48.58311111H258.27555555c-26.85155555 0-48.58311111 21.84533333-48.5831111 48.58311111V559.67288889c0 7.39555555 1.70666667 14.44977778 4.66488888 20.82133333l267.37777778-185.57155555c8.98844445-6.25777778 19.68355555-9.44355555 30.26488889-9.44355556s21.16266667 3.18577778 30.26488889 9.44355556l267.37777778 185.57155555c2.95822222-6.25777778 4.66488889-13.42577778 4.66488888-20.82133333v-351.34577778z"  horiz-adv-x="1024" />

    
    <glyph glyph-name="quanping" unicode="&#59099;" d="M924.38151038 573.31640625l1.0546875-0.26367188c0.3515625-0.08789063 0.79101563-0.26367188 1.14257813-0.35156249 0.17578125-0.08789063 0.43945313-0.08789063 0.61523437-0.17578125 0.08789063-0.08789063 0.17578125-0.08789063 0.26367188-0.17578125l1.0546875-0.52734375c0.26367188-0.17578125 0.52734375-0.26367188 0.87890625-0.52734375 0.3515625-0.17578125 0.61523438-0.43945313 0.96679687-0.703125 0.26367188-0.17578125 0.52734375-0.3515625 0.79101563-0.61523438 0.26367188-0.26367188 0.61523438-0.52734375 0.87890625-0.79101563 0.26367188-0.26367188 0.43945313-0.43945313 0.61523437-0.703125 0.26367188-0.3515625 0.52734375-0.61523438 0.79101563-0.96679687 0.17578125-0.26367188 0.3515625-0.43945313 0.52734375-0.79101563 0.26367188-0.3515625 0.43945313-0.703125 0.61523437-1.0546875 0.17578125-0.26367188 0.26367188-0.52734375 0.43945313-0.87890625 0.08789063-0.08789063 0.17578125-0.26367188 0.17578124-0.3515625l0.26367188-0.79101562c0.08789063-0.3515625 0.17578125-0.61523438 0.3515625-0.96679688 0.08789063-0.3515625 0.17578125-0.79101563 0.26367187-1.14257812 0.08789063-0.3515625 0.08789063-0.61523438 0.17578125-0.96679688 0.08789063-0.43945313 0.08789063-0.87890625 0.08789063-1.23046875 0-0.17578125 0.08789063-0.3515625 0.08789062-0.61523437v-97.64648438c0-8.17382813-6.59179688-14.765625-14.76562499-14.76562499s-14.765625 6.59179688-14.76562501 14.765625v62.05078125l-96.67968749-96.50390626c-3.42773438-3.515625-8.4375-5.00976563-13.27148438-4.04296875-6.94335938 1.31835938-11.953125 7.3828125-11.953125 14.50195313 0 3.95507813 1.58203125 7.64648438 4.30664063 10.45898437l96.59179687 96.59179688h-62.05078125c-8.17382813 0-14.765625 6.59179688-14.765625 14.765625 0 3.95507813 1.58203125 7.64648438 4.30664063 10.45898437 2.72460938 2.8125 6.50390625 4.30664063 10.45898437 4.30664063h97.64648438c0.17578125 0 0.43945313-0.08789063 0.61523437-0.08789063 0.79101563-0.08789063 1.49414063-0.17578125 2.28515625-0.26367187zM568.95182288 194.68359375l-1.0546875 0.26367188c-0.3515625 0.08789063-0.703125 0.26367188-1.14257813 0.35156249-0.17578125 0.08789063-0.43945313 0.08789063-0.61523437 0.17578125-0.08789063 0.08789063-0.17578125 0.08789063-0.26367188 0.17578125l-1.0546875 0.52734375c-0.26367188 0.17578125-0.52734375 0.26367188-0.87890625 0.43945313s-0.61523438 0.43945313-0.96679687 0.703125c-0.26367188 0.17578125-0.52734375 0.3515625-0.79101563 0.61523438-0.26367188 0.26367188-0.61523438 0.52734375-0.87890625 0.79101562-0.26367188 0.26367188-0.43945313 0.43945313-0.61523437 0.703125-0.26367188 0.3515625-0.52734375 0.61523438-0.79101563 0.96679688l-0.52734375 0.79101562c-0.26367188 0.3515625-0.43945313 0.703125-0.61523437 1.0546875-0.17578125 0.26367188-0.26367188 0.52734375-0.43945313 0.87890625-0.08789063 0.08789063-0.17578125 0.26367188-0.17578124 0.3515625l-0.26367188 0.79101563c-0.08789063 0.26367188-0.17578125 0.61523438-0.3515625 0.96679687-0.08789063 0.3515625-0.17578125 0.79101563-0.26367187 1.14257813-0.08789063 0.3515625-0.08789063 0.61523438-0.17578125 0.96679687-0.08789063 0.43945313-0.08789063 0.87890625-0.08789063 1.23046875 0 0.17578125 0 0.3515625-0.08789062 0.61523438V306.83203125c0 8.17382813 6.59179688 14.765625 14.76562499 14.765625s14.765625-6.59179688 14.76562501-14.765625v-62.05078125l96.59179687 96.59179688c3.42773438 3.515625 8.4375 5.00976563 13.27148438 4.04296874 2.90039063-0.52734375 5.53710938-1.93359375 7.64648437-4.04296875 2.90039063-2.90039063 4.30664063-6.6796875 4.30664063-10.45898437 0-3.95507813-1.58203125-7.64648438-4.30664063-10.45898438L607.44791663 223.86328125h62.05078125c8.17382813 0 14.765625-6.59179688 14.765625-14.765625s-6.59179688-14.765625-14.765625-14.765625H571.8522135c-0.17578125 0-0.43945313 0.08789063-0.61523437 0.08789063-0.43945313 0-0.79101563 0-1.23046875 0.08789062-0.3515625 0.08789063-0.703125 0.17578125-1.0546875 0.17578125zM966.39322913 102.75H526.94010413c-33.92578125 0-61.5234375 27.59765625-61.5234375 61.5234375V603.7265625c0 33.92578125 27.59765625 61.5234375 61.5234375 61.5234375h439.453125c33.92578125 0 61.5234375-27.59765625 61.5234375-61.5234375v-439.453125c0-33.92578125-27.59765625-61.5234375-61.5234375-61.5234375zM526.94010413 630.09375c-14.50195313 0-26.3671875-11.86523438-26.3671875-26.3671875v-439.453125c0-14.50195313 11.86523438-26.3671875 26.3671875-26.3671875h439.453125c14.50195313 0 26.3671875 11.86523438 26.3671875 26.3671875V603.7265625c0 14.50195313-11.86523438 26.3671875-26.3671875 26.3671875H526.94010413z"  horiz-adv-x="1024" />

    
    <glyph glyph-name="icon-test31" unicode="&#59100;" d="M795.7 70.60000000000002H228.3c-15.7 0-28.6 12.8-28.6 28.6V668.8c0 15.7 12.8 28.6 28.6 28.6h567.5c15.7 0 28.6-12.8 28.6-28.6v-569.7c-0.1-15.7-12.9-28.5-28.7-28.5z m-554.3 41.7h541.2V655.7H241.4v-543.4zM512 384V562.2H333.8V384H512zM369.4 526.6h106.9v-106.9H369.4V526.6z m0 0M564.3 475.1h92.2v-235.6H420.9v92c0 9.3-7.5 16.8-16.8 16.8s-16.8-7.5-16.8-16.8v-125.6h302.9V508.7H564.3c-9.3 0-16.8-7.5-16.8-16.8s7.5-16.8 16.8-16.8z m0 0"  horiz-adv-x="1024" />

    
    <glyph glyph-name="close" unicode="&#59101;" d="M778.9583333 425.25l-1.125 0.28125c-0.375 0.09375-0.84375 0.28125-1.21875 0.375-0.1875 0.09375-0.46875 0.09375-0.65625 0.1875-0.09375 0.09375-0.1875 0.09375-0.28125 0.1875l-1.125 0.5625c-0.28125 0.1875-0.5625 0.28125-0.9375 0.5625-0.375 0.1875-0.65625 0.46875-1.03125 0.75-0.28125 0.1875-0.5625 0.375-0.84375 0.65625-0.28125 0.28125-0.65625 0.5625-0.9375 0.84375-0.28125 0.28125-0.46875 0.46875-0.65625 0.75-0.28125 0.375-0.5625 0.65625-0.84375 1.03125-0.1875 0.28125-0.375 0.46875-0.5625 0.84375-0.28125 0.375-0.46875 0.75-0.65625 1.125-0.1875 0.28125-0.28125 0.5625-0.46875 0.9375-0.09375 0.09375-0.1875 0.28125-0.1875 0.375l-0.28125 0.84375c-0.09375 0.375-0.1875 0.65625-0.375 1.03125-0.09375 0.375-0.1875 0.84375-0.28125 1.21875-0.09375 0.375-0.09375 0.65625-0.1875 1.03125-0.09375 0.46875-0.09375 0.9375-0.09375 1.3125 0 0.1875-0.09375 0.375-0.09375 0.65625V544.96875c0 8.71875 7.03125 15.75 15.75 15.75s15.75-7.03125 15.75-15.75v-66.1875L900.6458333 581.8125c3.65625 3.75 9 5.34375 14.15625 4.3125 7.40625-1.40625 12.75-7.875 12.75-15.46875 0-4.21875-1.6875-8.15625-4.59375-11.15625l-103.03125-103.125h66.1875c8.71875 0 15.75-7.03125 15.75-15.75 0-4.21875-1.6875-8.15625-4.59375-11.15625-2.90625-3-6.9375-4.59375-11.15625-4.59375H781.9583333c-0.1875 0-0.46875 0.09375-0.65625 0.09375-0.84375 0-1.59375 0.09375-2.34375 0.28125zM671.7083333 342.75l1.125-0.28125c0.375-0.09375 0.75-0.28125 1.21875-0.375 0.1875-0.09375 0.46875-0.09375 0.65625-0.1875 0.09375-0.09375 0.1875-0.09375 0.28125-0.1875l1.125-0.5625c0.28125-0.1875 0.5625-0.28125 0.9375-0.46875s0.65625-0.46875 1.03125-0.75c0.28125-0.1875 0.5625-0.375 0.84375-0.65625 0.28125-0.28125 0.65625-0.5625 0.9375-0.84375 0.28125-0.28125 0.46875-0.46875 0.65625-0.75 0.28125-0.375 0.5625-0.65625 0.84375-1.03125l0.5625-0.84375c0.28125-0.375 0.46875-0.75 0.65625-1.125 0.1875-0.28125 0.28125-0.5625 0.46875-0.9375 0.09375-0.09375 0.1875-0.28125 0.1875-0.375l0.28125-0.84375c0.09375-0.28125 0.1875-0.65625 0.375-1.03125 0.09375-0.375 0.1875-0.84375 0.28125-1.21875 0.09375-0.375 0.09375-0.65625 0.1875-1.03125 0.09375-0.46875 0.09375-0.9375 0.09375-1.3125 0-0.1875 0-0.375 0.09375-0.65625v-104.15625c0-8.71875-7.03125-15.75-15.75-15.75s-15.75 7.03125-15.75 15.75V289.3125l-103.125-102.9375c-3.65625-3.75-9-5.34375-14.15625-4.3125-3.09375 0.5625-5.90625 2.0625-8.15625 4.3125-3.09375 3.09375-4.59375 7.125-4.59375 11.15625 0 4.21875 1.6875 8.15625 4.59375 11.15625L630.6458333 311.71875h-66.1875c-8.71875 0-15.75 7.03125-15.75 15.75s7.03125 15.75 15.75 15.75h104.15625c0.1875 0 0.46875-0.09375 0.65625-0.09375 0.46875 0 0.84375 0 1.3125-0.09375 0.46875-0.09375 0.84375-0.1875 1.125-0.28125zM959.7083333 84H490.9583333c-36.1875 0-65.625 29.4375-65.625 65.625V618.375c0 36.1875 29.4375 65.625 65.625 65.625h468.75c36.1875 0 65.625-29.4375 65.625-65.625v-468.75c0-36.1875-29.4375-65.625-65.625-65.625zM490.9583333 646.5c-15.46875 0-28.125-12.65625-28.125-28.125v-468.75c0-15.46875 12.65625-28.125 28.125-28.125h468.75c15.46875 0 28.125 12.65625 28.125 28.125V618.375c0 15.46875-12.65625 28.125-28.125 28.125H490.9583333z"  horiz-adv-x="1024" />

    
    <glyph glyph-name="icon-test32" unicode="&#59102;" d="M684.05333333 57.06666667000002H339.94666667c-34.34666667 0-62.18666667 27.94666667-62.18666667 62.18666666V648.64c0 34.34666667 27.94666667 62.18666667 62.18666667 62.18666667h344c34.34666667 0 62.18666667-27.94666667 62.18666666-62.18666667v-529.38666667c0.10666667-34.24-27.84-62.18666667-62.08-62.18666666z m-344.10666666 621.86666666c-16.64 0-30.18666667-13.54666667-30.18666667-30.18666666v-529.38666667c0-16.64 13.54666667-30.18666667 30.18666667-30.18666667h344c16.64 0 30.18666667 13.54666667 30.18666666 30.18666667V648.64c0 16.64-13.54666667 30.18666667-30.18666666 30.18666667H339.94666667zM583.46666667 167.89333333000002H440.53333333c-8.85333333 0-16 7.14666667-16 16s7.14666667 16 16 16h142.93333334c8.85333333 0 16-7.14666667 16-16s-7.14666667-16-16-16z"  horiz-adv-x="1024" />

    


  </font>
</defs>
</svg>
